<svg xmlns="http://www.w3.org/2000/svg" width="318.427" height="303.653" viewBox="0 0 238.82 227.74"><defs><clipPath id="a"><path d="M34 155h179v72.738H34Zm0 0"/></clipPath><clipPath id="b"><path d="M225 3h13.82v15H225Zm0 0"/></clipPath><clipPath id="c"><path d="M0 20h238.82v7H0Zm0 0"/></clipPath></defs><path d="M104.309 69.719c-3.266.75-7.391 1.484-10.684 1.484q-.241-.001-.488-.008c-3.028-.054-7.395.184-11.106-.882 2.309-1.415 5.465-3.372 6.637-4.102 1.293.59 4.805 2.008 8.8 2.02.255-.004.505-.008.75-.02 3.91-.2 7.337-1.79 8.915-2.637l1.668 3.004c-1.016.285-2.61.715-4.492 1.14m6.851-1.015-2.77-4.984a1.02 1.02 0 0 0-.628-.485 1.02 1.02 0 0 0-.782.125s-.238.153-.699.403c-1.386.754-4.668 2.293-8.148 2.453q-.342.013-.664.015c-2.2 0-4.324-.511-5.883-1.027-1.559-.52-2.52-1.023-2.523-1.016a.99.99 0 0 0-.989.04c-.008.003-6.488 4.035-8.847 5.453a.996.996 0 0 0 .101 1.765c3.86 1.739 8.387 1.739 11.766 1.735.726 0 1.394 0 1.996.015l.023-.996-.015.996q.251.007.527.008c7.125-.012 16.906-3.05 16.953-3.058.29-.09.524-.305.637-.582.11-.282.09-.598-.055-.86M92.367 42.258c.664.004 1.094.48 1.098.937-.004.457-.434.934-1.098.938-.668-.004-1.097-.48-1.101-.938.004-.457.433-.933 1.101-.937m0 3.875c1.649 0 3.082-1.254 3.094-2.938-.012-1.687-1.445-2.933-3.094-2.937-1.656.004-3.086 1.25-3.097 2.937.011 1.684 1.445 2.938 3.097 2.938m-4.406-6.25c1.05-.715 3.871-1.887 5.332-1.852q.177 0 .324.024c1.395.133 3.207 1.8 4.625 4.539.676 1.293 1.524 2.062 2.281 2.515a48 48 0 0 1-3.32 2.614c-2.863 2.082-3.41 5.511-3.426 7.144 0 1.121.13 3.988.13 6.11 0 .699-.012 1.316-.048 1.718-.02.043.04.02-.168.14-.191.102-.59.185-1.007.18a3.7 3.7 0 0 1-1.172-.18 2 2 0 0 1-.13-.05c-.07-.867-.12-3.547-.116-5.62 0-1.587-.438-2.716-.829-3.4.723-.89 1.086-1.808 1.075-2.742a4 4 0 0 0-.012-.351c-.105-.875-.562-1.684-1.074-2.633a34 34 0 0 0-1.473-2.363c-.293-.418-1.082-1.828-1.754-3.067-.332-.605-.64-1.18-.87-1.613a40 40 0 0 1 1.632-1.113m8.61 20.41c.273.031.542.035.812.043-.586.125-.961.195-.965.195-.2.035-.371.14-.512.274q.002-.435-.008-.899a1 1 0 0 0 .672.387m1.008 2.047c.758-.156 1.98-.434 3.3-.813 1.477-.445 3.056-.957 4.34-1.68.02.372.028.715.028 1.02.004.38-.02.696-.05.89q-.014.073-.028.122c-.61.43-3.559 1.82-7.629 1.953Zm1.11-10.05c1.472-1.657 2.828-2.802 4.078-3.657.882 1.918 1.468 4.082 1.527 7.105-1.59 1.239-4.023 2.621-6.672 2.61h-.02a23 23 0 0 1-.027-1.133c-.035-1.715.305-4.106 1.114-4.926m-11.383-5.477c.336.485.902 1.36 1.375 2.204.476.812.851 1.742.828 1.82q.005.088.004.187c-.012.54-.16 1.028-1.059 1.95a.993.993 0 0 0 0 1.414h-.004c.098.12.813.98.817 2.777.007 2.422.035 5.281.171 6.176.247.957.887 1.156 1.403 1.379a5.5 5.5 0 0 0 1.844.297c.632-.004 1.28-.09 1.89-.383.364-.164.719-.48.969-.883l-.027 1.063a.97.97 0 0 0 .285.722 1 1 0 0 0 .715.305h.32c2.684 0 4.945-.48 6.61-1.024 1.699-.582 2.66-1.074 3.195-1.562.664-.809.554-1.484.605-2.387 0-.879-.082-1.922-.156-2.984a1 1 0 0 0-.676-.875 1 1 0 0 0-.473-.031 1 1 0 0 0 .36-.762c.004-4.102-.926-7.012-2.254-9.492a1 1 0 0 0-.613-.496 1 1 0 0 0-.786.109c-1.664.996-3.492 2.418-5.453 4.621-.765.902-1.16 2.043-1.37 3.195.16-1.406.823-3.625 2.538-4.8 2.52-1.79 4.75-3.864 4.77-3.88.297-.277.398-.706.254-1.09a1 1 0 0 0-.914-.644s-.004.004-.141-.023c-.406-.102-1.437-.406-2.32-2.055-1.586-2.96-3.578-5.207-6.133-5.59a5 5 0 0 0-.586-.039c-2.25.04-4.996 1.278-6.418 2.172-1.383.895-2.426 1.695-2.441 1.707a1 1 0 0 0-.274 1.258c.016.027 2.344 4.469 3.145 5.645m-3.973 3.539a1 1 0 0 0 .457-1.13c-.543-1.921-2.543-3.288-5.035-3.292-.656 0-1.348.093-2.063.3-1.925.575-2.804 2.266-3.214 3.653a10 10 0 0 0-.27 1.16c-.57-.555-1.168-1.348-1.445-2.371a2 2 0 0 1-.067-.488c-.004-.668.422-1.371 1.375-2.043.934-.657 2.309-1.184 3.762-1.45 2.473-.449 4.64-1.23 5.79-1.687.421.781 1.105 2.055 1.796 3.414 1.121 2.16 2.289 4.77 2.324 5.324-.023.031-.125.125-.336.219-.765.367-2.547.52-3.926.508-.445 0-.859-.012-1.199-.024a16 16 0 0 1-1.722-.18c1.332-.628 2.832-1.367 3.773-1.913m-.852 4.117c1.141-.004 2.504-.063 3.684-.336.594-.145 1.148-.332 1.645-.676.488-.328.945-.957.933-1.7q0-.117-.015-.241c-.207-1.368-1.375-3.7-2.524-6.004-1.148-2.254-2.262-4.258-2.262-4.266a1 1 0 0 0-1.293-.422c-.003 0-.687.317-1.82.715a28 28 0 0 1-4.351 1.188c-1.688.308-3.293.898-4.551 1.777-1.246.86-2.223 2.105-2.23 3.68 0 .332.042.671.14 1.015.91 3.227 3.676 4.528 3.766 4.586a.99.99 0 0 0 1.003-.07 1 1 0 0 0 .438-.875 9 9 0 0 1 .352-2.387c.34-1.129.921-2.047 1.855-2.3a5.4 5.4 0 0 1 1.504-.223c1.3-.004 2.254.527 2.75 1.144-2.086 1.098-5.57 2.664-5.574 2.664a1 1 0 0 0 .168 1.883c.03.008 2.879.73 5.109.82.36.016.797.028 1.273.028M154.29 68.36h-.052c-.508.023-1.531-.383-2.32-.848-.375-.211-.695-.418-.941-.586l.136-1.223a5.7 5.7 0 0 0 1.082-.183c1.047.683 2.528 1.414 4.551 1.406q.663 0 1.402-.106c-1.5 1.035-3.039 1.524-3.859 1.54m-7.273-6.954a12 12 0 0 1-1.098-1.73c-.25-.473-.363-.762-.367-.762a1.01 1.01 0 0 0-.7-.598c-.32-.07-.652.016-.89.23 0 .005-.637.571-1.754 1.419a43 43 0 0 1-4.523 3.027c-1.137.653-2.309.867-3.387.867-.063 0-.121-.004-.188-.007.782-.286 1.547-.606 2.258-1.016 4.64-2.691 5.852-5.313 6.063-5.895.605-.09 1.203-.324 1.832-.609q.422-.208.804-.43c.223.418.489.88.801 1.32.61.844 1.461 1.77 2.785 1.876.176.605.407 1.347.688 2.109.336.863.687 1.738 1.144 2.508-1.347-.113-2.566-1.125-3.468-2.309m1.945 5.547c-.184.184-.461.45-.816.73-.59.489-1.375.88-1.727.852a.7.7 0 0 1-.2-.035c-1.097-.426-2.23-1.785-2.226-3.8q.001-.294.031-.583a1.003 1.003 0 0 0-.992-1.117 1 1 0 0 0-.746.332c-1.613 1.863-5.816 4.11-7.55 4.395-.673.128-1.481.195-2.36.195-2.91.023-6.508-.813-8.875-2.567 1.7-.023 3.996-.078 6.379-.44.203.093 2 .94 4.418.944 1.344 0 2.887-.273 4.383-1.136a45.6 45.6 0 0 0 5.61-3.848c.28.508.66 1.121 1.14 1.746.855 1.113 2.078 2.32 3.699 2.844Zm-22.906-7.613q.135.005.27.004c2.046-.004 4.097-.242 5.753-.852 2.555-.969 5.578-3.476 6.195-3.988.813.664 1.465 1.27 2.079 1.73-.54.48-1.504 1.297-2.649 2.133-1.742 1.301-3.976 2.563-5.238 2.61-.242.011-.492.02-.742.02-2.098.01-4.22-.571-5.668-1.657m7.433-6.453c-1.71.023-3.566-.23-4.039-.59-1.11-.727-1.8-1.492-2.3-2.371 1.863.414 4.148.726 6.195.73 1.086 0 2.094-.093 2.98-.336.82.164 1.84.348 2.809.465-.004.059-.012.113-.012.172v.016c-.68.46-1.27 1.015-1.715 1.703a40 40 0 0 1-3.918.21m-2.902-8.882c1.664.992 4.059 2.18 5.738 2.309.11.007.207.007.309.007 1.836-.008 3.683-.625 3.738-.633.34-.109.594-.39.668-.742a.99.99 0 0 0-.305-.953s-.113-.097-.32-.328c-.637-.68-1.855-2.34-1.836-4.047.012-.812.234-1.68.977-2.629 1.23 2.274 2.918 3.899 3.144 4.184a.99.99 0 0 0 1.238.242 1 1 0 0 0 .489-1.168c-.106-.34-.16-.824-.16-1.355 0-.739.097-1.547.222-2.262q.05.06.106.121c.55.586 1.133 1.234 1.855 1.672-.36.867-.902 2.394-.918 3.953.004.383.035.781.133 1.172-2.61.836-5.293 2.441-6.21 5.262-.974-.114-2.122-.325-2.962-.493h-.008c-1.257-.234-2.84-.699-4.011-1.437-1.164-.75-1.86-1.61-1.887-2.875m10.64 5.883c.462-2.172 2.36-3.477 4.786-4.34.09 1.105.175 2.223.23 2.973-.75.128-1.863.347-3.062.699-.637.191-1.301.406-1.953.668m5.8 2.96c.246.137.489.29.633.426.153.141.168.211.172.25.059.524.133 2.051.281 3.235a3.6 3.6 0 0 1-.617-.692c-.496-.699-.898-1.578-1.184-2.144a.99.99 0 0 0-.785-.547 1 1 0 0 0-.886.367c-.036.078-.637.516-1.235.781-.535.27-1.18.454-1.36.47-.269-.145-1.218-.966-2.382-1.923.902-.793 2.527-1.511 4.066-1.933.954-.274 1.844-.461 2.516-.582a6 6 0 0 0-.023.496c.05.46-.086 1.152.804 1.797m.825-12.395c.738.8 1.699 1.45 2.597 2.067q.023.01.047.027c-.89.098-1.883.25-2.902.476a3.2 3.2 0 0 1-.063-.648c-.004-.594.137-1.293.32-1.922m3.153-4.52c.75.95 1.851 2.32 2.523 3.04.653.675 1.59 1.293 2.36 1.742l-1.844 1.535a27 27 0 0 1-2.512-1.414c-1.18-.711-2.285-1.723-2.695-2.383.777-.805 1.59-1.789 2.168-2.52m-2.86 11.231c-.05-.676-.109-1.437-.171-2.176 1.21-.273 2.402-.43 3.406-.515Zm13.024 16.649c-1.86.832-3.297 1.113-4.422 1.113-1.75-.008-2.832-.649-3.797-1.313-.441-.25-1.242-1.687-1.73-3.101-.528-1.422-.88-2.809-.992-3.223-.165-.531-.34-3.219-.403-3.96-.176-1.227-1.05-1.77-1.594-2.09a3 3 0 0 1-.007-.188c0-.223.03-.461.05-.59l.637-1.332 9.395-7.824a1.003 1.003 0 0 0-.203-1.672s-.563-.274-1.254-.676c-.684-.398-1.496-.95-1.86-1.352-.945-1.007-3.195-3.91-3.199-3.914a1 1 0 0 0-1.594.02c-.004.004-1.34 1.793-2.543 3.09-.41-.239-1.07-.77-1.558-1.371-.739-.836-1.281-1.672-1.281-1.672a1.002 1.002 0 0 0-1.801.27c-.004.038-.496 1.722-.68 3.609-.57-.785-1.148-1.723-1.559-2.754a1 1 0 0 0-.695-.606 1 1 0 0 0-.894.22c-1.868 1.612-2.618 3.464-2.602 5.12.027 1.934.887 3.508 1.645 4.535a9 9 0 0 1-1.594.168q-.116.001-.227-.004c-1.101.028-5.011-2.004-5.957-2.77a.996.996 0 0 0-1.55.5c-.212.665-.313 1.302-.313 1.903-.008 2.149 1.312 3.692 2.812 4.617-2.128-.191-4.351-.648-5.648-1.086a.997.997 0 0 0-1.266 1.254c.598 1.918 1.637 3.817 3.883 5.246 1.348.81 3.25.88 5.121.907.34 0 .68-.008 1.004-.016-1.027.707-2.195 1.41-3.11 1.746-1.296.485-3.179.73-5.058.727-.832 0-1.664-.047-2.449-.13a1 1 0 0 0-.988 1.465c1.41 2.563 4.207 3.833 7.054 4.204-3.586.586-7.25.426-8.875.554a1.01 1.01 0 0 0-.82.59c-.144.332-.101.715.113 1.004 2.754 3.621 7.961 4.867 12.016 4.895.984 0 1.906-.082 2.73-.235 1.91-.39 4.829-1.82 7.04-3.543.43 2.055 1.757 3.59 3.347 4.215.301.117.61.168.91.168h.016c1.242-.023 2.207-.699 2.965-1.277.246-.192.465-.383.648-.555.918.621 2.582 1.606 4.207 1.66h.121c2.149-.117 5.707-1.597 8.051-5.082a1 1 0 0 0-1.242-1.465m9.18-13.636c-.371-.875-1.172-1.453-1.903-1.75-1.02-.45-2.136-.621-2.925-.766-.872-.152-1.989-.215-3.13-.215-.94 0-1.89.043-2.699.133-.828.106-1.43.176-2.027.492-.246.094-.621.575-.594 1.008.055.664.352.844.532 1.047.703.605 1.863 1.152 3.273 1.805l.344.152c-.305.008-.617.008-.93.008-2.789.008-6.02-.207-7.492-.64-1.512-.47-1.492-.848-1.488-.915-.028-.133.187-.586.59-.941.453-.43 2.648-2.164 4.648-3.727 1.351-1.05 2.64-2.047 3.344-2.59.738.453 2.043 1.211 3.34 1.735 1.046.41 2.84.847 4.515 1.453 1.676.555 3.098 1.465 3.191 1.91.036.086.051.172.051.285.028.336-.242.93-.64 1.516m2.437-2.563c-.777-1.652-2.578-2.34-4.36-3.031-1.784-.64-3.679-1.113-4.448-1.426-1.672-.668-3.582-1.933-3.59-1.933a1 1 0 0 0-1.164.043c-.024.02-7.485 5.75-8.688 6.867-.597.574-1.2 1.332-1.226 2.402.004 1.344 1.152 2.367 2.933 2.84 1.918.535 5.14.707 8.047.715 2.316-.004 4.313-.113 5.348-.34.422-.098.734-.457.773-.89a1 1 0 0 0-.613-1.008c-1.375-.57-3.2-1.325-4.66-2.004a30 30 0 0 1-.692-.332 24 24 0 0 1 1.946-.075c1.058 0 2.109.067 2.773.192.8.137 1.793.316 2.477.62.718.349.906.575.914.977 0 .254-.114.72-.52 1.387a1.003 1.003 0 0 0 1.48 1.305c.024-.024.833-.664 1.673-1.598.816-.953 1.761-2.14 1.8-3.664 0-.344-.062-.707-.203-1.047M52.613 139.61l-.011-.028c-.086-.238-.211-.5-.356-.781-2.437-5.207-6.969-12.64-8.117-17.098-.934-3.586-1.66-8.18-1.66-14.984 0-2.414.093-5.102.304-8.11v-.058a.944.944 0 0 0-.87-.95q-.024-.002-.071-.003a.94.94 0 0 0-.937.875c-.211 3.05-.305 5.785-.305 8.246 0 6.933.75 11.719 1.722 15.457.575 2.187 1.782 4.844 3.153 7.562-.25-.3-.496-.593-.73-.87-2.47-2.868-5.4-10.74-6.137-15.692-.293-1.887-.375-5.32-.375-8.293 0-3.156.086-5.801.086-5.824v-.024a.93.93 0 0 0-.914-.933c.011 0-.004-.004-.032-.004a.94.94 0 0 0-.933.91l.062.004h-.062c0 .008-.09 2.695-.09 5.87.008 3.02.074 6.454.398 8.575.848 5.344 3.672 13.16 6.563 16.629 2.304 2.707 5.933 7.14 7.18 9.375.136.297.28.605.41.898.152.356.496.57.859.567h.016c.105 0 .218-.02.328-.067.367-.14.597-.5.593-.879v-.023h.075Zm7.215-38.544v-.027l-.246-.02h.25v-5.855a.95.95 0 0 0-.941-.937.94.94 0 0 0-.938.937v5.856c.008 1.14.27 2.359.703 3.601-.062-.086-.117-.172-.176-.254-1.171-1.664-1.449-5.86-1.437-7.527q-.001-.118.004-.211c0-.352.004-.527.004-.527v-.04a.94.94 0 0 0-.899-.94h-.035a.94.94 0 0 0-.945.901c0 .012-.004.235-.004.598.027 1.649.055 6.16 1.746 8.785 1.875 2.797 5.145 6.254 6.59 7.606a.949.949 0 0 0 1.277.012.97.97 0 0 0 .305-.704.92.92 0 0 0-.195-.574c-2.614-3.336-5.075-7.867-5.063-10.68m-1.652-9.226.035.008h.039c.04 0 .082 0 .125-.016 1.977-.539 2.031-2.703 2.535-5.3.008-.06.008-.094.008-.13a.95.95 0 0 0-.824-.941c-.04 0-.074-.008-.117-.004a.94.94 0 0 0-.938.824c-.152 1.25-.394 2.332-.648 3.028-.012.043-.032.082-.047.125-.207-.762-.438-2.086-.438-3.551 0-.11.004-.215.004-.32a.94.94 0 0 0-.93-.942h-.007c-.004 0-.016-.004-.035 0a.94.94 0 0 0-.907.942h.25l-.25.015c.219 3.035.024 5.543 2.145 6.262m-12.7 57.633c-2.12-5.844-6.37-14.102-7.632-17.086-1.324-3.082-2.832-9.989-3.004-12.692-.031-.425-.05-1.304-.05-2.43 0-5.656.35-17.68.35-17.714v-.012a.95.95 0 0 0-.917-.95h-.028c-.5 0-.925.403-.933.923 0-.004-.348 12.043-.348 17.754 0 1.144.012 2.027.05 2.562.216 3.055 1.692 9.828 3.15 13.285.628 1.492 1.921 4.14 3.324 7.121-1.083-1.472-2-2.73-2.45-3.504-1.547-2.628-3.472-6.25-5.746-15.316-1.137-4.55-1.422-9.324-1.422-13.2 0-3.726.266-6.573.266-7.788a.94.94 0 0 0-.941-.942.94.94 0 0 0-.938.942c0 1.011-.266 4.004-.266 7.789 0 3.965.278 8.883 1.477 13.656 2.289 9.18 4.336 13.086 5.953 15.817 1.465 2.417 6.719 8.964 8.29 12.296.16.438.312.88.448 1.301a.95.95 0 0 0 1.13.621.95.95 0 0 0 .706-.914q0-.093-.011-.176a7 7 0 0 0-.457-1.343m9.691-41.793-.25.015.25-.02c-.164-1.76-.238-4.027-.238-6.257 0-1.82.047-3.617.14-5.102v-.054a.94.94 0 0 0-.883-.942c-.007 0-.027-.004-.05-.004a.94.94 0 0 0-.946.887 88 88 0 0 0-.144 5.215c0 2.27.078 4.578.242 6.43.094.886.379 1.91.793 3.007-.445-.785-.809-1.52-1.055-2.148-1.03-2.516-1.254-7.371-1.25-9.941q-.001-.13.004-.243c0-.953.02-1.53.02-1.53v-.036a.94.94 0 0 0-.903-.941h-.035a.94.94 0 0 0-.894.636.93.93 0 0 0-.696-.437c-.027 0-.062-.004-.105-.004a.94.94 0 0 0-.934.836c-.183 1.754-.285 3.808-.285 5.969.012 4.964.508 10.398 1.836 13.816.336.86.692 1.742 1.067 2.629-1.227-2.063-2.696-4.945-3.766-8.04-1.074-3.066-1.281-8.366-1.277-11.39 0-1.422.039-2.34.039-2.34v-.039a.93.93 0 0 0-.903-.941h-.047a.927.927 0 0 0-.925.894c0 .012-.043.977-.043 2.426.008 3.117.156 8.453 1.383 12.004 1.726 4.98 4.324 9.274 5.687 11.07 1.281 1.665 4.895 6.872 5.797 7.891a.94.94 0 0 0 .695.316h.008a.95.95 0 0 0 .941-.945.94.94 0 0 0-.156-.515c-2.71-4.176-4.984-9.188-6.746-13.711-1.168-2.942-1.71-8.317-1.71-13.125 0-1.102.026-2.176.077-3.184.059 2.766.301 6.863 1.367 9.57 1.73 4.235 7.004 11.051 8.977 12.84.176.16.402.242.633.238.21.004.422-.07.594-.214a.95.95 0 0 0 .195-1.22c-2.567-4.089-6.305-10.573-6.504-13.366M38.07 162.059c-3.289-8.778-8.293-20.95-9.37-24.188-.872-2.601-2.727-12.566-2.727-25.668 0-3.473.129-7.164.441-11.008.004-.03.004-.05.004-.074a.94.94 0 0 0-.867-.937c-.02 0-.047-.004-.082-.004a.935.935 0 0 0-.934.87 140 140 0 0 0-.441 11.153c.008 13.317 1.836 23.277 2.824 26.266.727 2.187 3.047 7.965 5.484 14.144-2.218-3.343-4.367-6.48-5.242-8.12-1.941-3.575-5.219-15.126-6.066-23.196-.375-3.488-.485-7.535-.485-11.012 0-4.64.192-8.238.192-8.27.004-.011 0-.027 0-.038a.94.94 0 0 0-.89-.938h-.056a.93.93 0 0 0-.933.89c0 .024-.195 3.673-.192 8.356 0 3.516.106 7.613.493 11.219.914 8.387 4.109 19.808 6.28 23.887 1.88 3.433 8.708 12.816 10.817 17.351.207.555.41 1.11.61 1.649a.94.94 0 0 0 1.148.578.953.953 0 0 0 .656-1.106c-.129-.523-.355-1.125-.664-1.804m-5.937-83.36h.004c-.223.985-.422 2-.614 3.067-.62 3.59-.933 6.886-.933 9.39.148 2.531-.067 4.426 1.715 5.188.136.027.21.039.289.039 1.781-.34 2.222-2.031 3.168-4.309.847-2.37 1.668-5.59 2.293-9.18.16-.898.293-1.769.406-2.624.008-.047.008-.086.008-.125a.935.935 0 0 0-.938-.938.94.94 0 0 0-.933.805c-.114.84-.243 1.687-.399 2.562-.605 3.504-1.406 6.637-2.203 8.856-.394 1.11-.785 1.984-1.125 2.523-.043.074-.09.145-.133.207-.14-.566-.27-1.605-.265-2.851v-.141c0-2.36.297-5.582.906-9.082q.277-1.547.594-2.988a.938.938 0 0 0-.926-1.137.93.93 0 0 0-.914.738m-8.461 80.887c-1.48-3.54-6.16-13.84-6.992-20.649-.512-4.039-.934-13.457-.934-21.863 0-5.992.219-11.543.738-14.191a.94.94 0 0 0-.926-1.121.944.944 0 0 0-.925.765c-.563 2.957-.758 8.489-.766 14.543 0 8.489.418 17.883.942 22.102.921 7.305 5.671 17.617 7.129 21.133.625 1.492 1.843 4.078 3.117 6.96-1.95-2.89-3.809-5.374-4.72-6.68-1.948-2.769-5.491-10.425-8.108-18.866-1.282-4.067-1.938-13.508-2.266-21.899a488 488 0 0 1-.332-14.488c-.004-.41-.004-.734-.008-.957v-.25c-.008-.078.004-.031-.004-.094a.94.94 0 0 0-.941-.933c-.43 0-.79.293-.899.691h-.129l.09.293c.016 1.027.016 29.461 2.692 38.191 2.68 8.622 6.203 16.278 8.363 19.387 2.086 2.95 8.82 11.817 10.469 17.387a.94.94 0 0 0 .898.676 1 1 0 0 0 .223-.032.93.93 0 0 0 .719-.914c0-.05-.004-.101-.008-.144-.953-5.582-5.977-15.555-7.422-19.047m-12.55-59.52.1-.226-.07.238c.16.047.332.082.504.082 3.305-.57 6.492-7.844 9.961-17.422a96 96 0 0 0 1.938-6.504.95.95 0 0 0-.918-1.175.93.93 0 0 0-.903.707 93 93 0 0 1-1.894 6.367c-1.586 4.695-3.367 8.851-4.961 11.793-.723 1.433-1.492 2.543-2.11 3.289a8 8 0 0 1-.789.836c-.085.074-.16.133-.214.172l-.047-.149c-.094-.312-.168-.863-.164-1.57q-.005-.025-.004-.027c-.004-3.16 1.27-9.258 3.531-15.946a93 93 0 0 1 2.215-5.91.9.9 0 0 0 .066-.351.93.93 0 0 0-.578-.868.922.922 0 0 0-1.227.516 95 95 0 0 0-2.257 6.016c-2.305 6.847-3.621 12.992-3.633 16.57.055 1.543.105 2.93 1.453 3.562m27.395-37.863c0-.098.027-.148.05-.176.024.028.051.082.055.18a.25.25 0 0 1-.059.16c-.023-.027-.046-.078-.046-.164m15.07 4.192.195-.153zc.508.648 1.297 1.539 2.187 2.5-3.671-2.356-7.734-5.012-8.992-6-.62-.489-.926-1.258-.933-2.243v-.035c-.008-1.492.851-3.277 1.984-4.047.43-.312 1.05-.484 1.738-.484h.063c1.097-.008 2.203.492 2.765 1.043-1.125.512-1.98 1.625-2.171 2.918-.028.148-.028.293-.028.406.074 2.2 1.778 3.817 3.387 5.942m9.621 7.925-.352-.14a.93.93 0 0 0-.218-.89l-.035-.036-.043-.02.007-.02c-.656-.648-5.91-5.944-7.496-7.98-1.707-2.101-3.027-3.761-2.996-4.71v-.036c0-.101.008-.152.008-.152.012-.727 1.066-1.64 1.465-1.621h.012l.074.004a.926.926 0 0 0 .75-.254.93.93 0 0 0 .289-.672q.001-.052-.004-.086c-.336-2.36-2.863-3.465-5.094-3.504-.984.008-1.996.23-2.84.836-1.734 1.258-2.754 3.484-2.77 5.613 0 1.371.47 2.797 1.657 3.723 1.633 1.27 6.973 4.727 11.012 7.3l-18.586-7.472q.241.071.512.078c1.171-.027 1.937-1.031 1.941-2.078-.004-1.055-.766-2.066-1.934-2.086l-.004.25-.003-.25c-1.164.02-1.93 1.031-1.926 2.086-.004.77.41 1.516 1.09 1.867l-9.828-3.953c2.199-1.527 6.851-4.418 11.875-5.582 4.402-1.027 9.44-1.383 13.226-1.383h.168c2.2-.004 3.98.133 4.856.301 1.636.274 2.55 1.027 2.492 1.39 0 .009-.004.028-.004.055v.036c.004.265-.207.87-1.012 1.707-1.09 1.125-1.629 2.41-1.629 3.664v.05c.02 2.208 1.488 4.043 3.156 5.235 1.739 1.23 4.973 3.441 6.622 4.57-1.051.903-2.805 2.461-4.438 4.16m6.508-5.035c-.004-.004-.008-.004-.016-.008l-.027-.02c-.594-.398-5.352-3.628-7.559-5.202l-.144.203.144-.203c-1.36-.953-2.37-2.395-2.363-3.692.016-.789.273-1.55 1.11-2.422.972-1.023 1.519-2 1.53-3.023-.109-2.145-2.18-2.965-4.023-3.309-1.129-.218-3.012-.34-5.37-.34-3.903 0-9.044.364-13.653 1.434-7.504 1.758-13.922 6.906-13.942 6.918a.95.95 0 0 0-.375.746q0 .06.012.14c.05.321.27.602.582.727l37.48 15.075q.173.065.356.066a.92.92 0 0 0 .684-.305c2.511-2.703 5.648-5.25 5.652-5.254a.93.93 0 0 0 .348-.722v-.051a.94.94 0 0 0-.403-.738Zm139.68 52.586-.243-.058zc1.183-4.773 1.472-9.68 1.472-13.644 0-3.797-.254-6.79-.254-7.801a.94.94 0 0 0-.941-.938.94.94 0 0 0-.938.938c0 1.215.254 4.058.254 7.8 0 3.876-.285 8.649-1.418 13.192-2.27 9.066-4.191 12.684-5.75 15.312-.441.77-1.36 2.032-2.441 3.508 1.402-2.984 2.695-5.633 3.328-7.12 1.45-3.462 2.926-10.24 3.148-13.302.028-.523.04-1.406.04-2.535 0-5.703-.34-17.75-.34-17.77a.95.95 0 0 0-.942-.921h-.015c-.004.004-.004.004-.008.004v-.004c-.008 0-.016.004-.024.004-.007-.004-.015 0-.027 0a.943.943 0 0 0-.863.937c.004 0 0 .02.004.059.02.683.336 12.2.336 17.691 0 1.114-.008 1.992-.043 2.418-.172 2.692-1.68 9.606-3 12.688-1.262 2.984-5.508 11.238-7.637 17.093a7 7 0 0 0-.453 1.325.95.95 0 0 0 .684 1.102c.09.019.167.027.242.027a.94.94 0 0 0 .89-.649q.012-.039.024-.066l-.168-.067.18.012.003-.016c.114-.324.246-.703.39-1.097 1.513-3.293 6.84-9.93 8.317-12.356 1.618-2.734 3.657-6.644 5.95-15.824m10.199-.375-.25-.027zc.379-3.601.492-7.703.492-11.223 0-4.671-.188-8.32-.188-8.328a.95.95 0 0 0-.953-.906s-.015-.008-.074.008c-.469.02-.855.433-.855.933 0 0-.004.036.007.094-.003-.027.18 3.563.18 8.2 0 3.48-.113 7.535-.476 11.023-.856 8.078-4.13 19.621-6.079 23.195-.87 1.64-3.015 4.778-5.234 8.121 2.434-6.175 4.75-11.957 5.48-14.144.993-2.989 2.817-12.946 2.817-26.27 0-3.511-.125-7.261-.426-11.148a.95.95 0 0 0-.941-.871c-.02 0-.047 0-.098.007a.93.93 0 0 0-.844.926c0 .012-.004.055.012.117.285 3.805.422 7.504.422 10.97.004 13.105-1.848 23.07-2.723 25.675-1.074 3.234-6.086 15.422-9.379 24.215-.3.652-.523 1.254-.648 1.762a.952.952 0 0 0 .645 1.117.947.947 0 0 0 1.156-.578l.648-1.754c2.153-4.543 8.906-13.832 10.77-17.25 2.175-4.07 5.37-15.496 6.289-23.89m11.484-17.458a.939.939 0 0 0-1.844-.246h-.039v.359c.004 1.95-.129 29.688-2.61 37.563-2.608 8.445-6.155 16.101-8.108 18.87-.907 1.302-2.758 3.774-4.7 6.653 1.27-2.87 2.485-5.445 3.102-6.93 1.457-3.523 6.207-13.828 7.129-21.136.527-4.219.933-13.617.933-22.106 0-6.054-.203-11.586-.761-14.535a.935.935 0 0 0-.914-.765.8.8 0 0 0-.2.023.93.93 0 0 0-.75.914c0 .055.004.121.024.192.5 2.632.719 8.175.719 14.171 0 8.407-.414 17.832-.918 21.871-.836 6.813-5.512 17.11-7 20.645-1.43 3.473-6.41 13.36-7.399 18.953l-.004.043c-.004-.012-.008.012-.011.027a.939.939 0 0 0 .93 1.113.94.94 0 0 0 .898-.671c1.66-5.57 8.382-14.442 10.46-17.387 2.169-3.11 5.688-10.765 8.368-19.39 1.37-4.461 2.031-13.98 2.363-22.426.168-4.219.246-8.164.29-11.055.019-1.45.026-2.633.034-3.453q.004-.622.008-.957v-.25l-.012-.012.012-.035Zm-29.004 9.422-.246-.04zc.317-2.133.395-5.582.399-8.613 0-3.16-.09-5.828-.09-5.832a.94.94 0 0 0-.938-.914h-.007c-.008-.004-.028-.004-.075.007-.386 0-.73.301-.828.696h-.031v.254c0 .02.086 2.648.086 5.789 0 2.984-.086 6.43-.375 8.332-.735 4.949-3.668 12.82-6.133 15.687q-.352.417-.734.875c1.375-2.722 2.582-5.379 3.16-7.566.969-3.739 1.71-8.52 1.71-15.461 0-2.461-.1-5.192-.296-8.235a.94.94 0 0 0-.938-.878q-.024 0-.09.003a.93.93 0 0 0-.855.93c0 .004-.004.047.012.106.191 2.976.289 5.664.289 8.074-.004 6.805-.723 11.398-1.653 14.988-1.132 4.418-5.585 11.75-8.046 16.961-.2.367-.36.707-.47 1.02a.94.94 0 0 0 .563 1.18c.102.038.207.062.32.062h.016c.364 0 .7-.215.856-.555.125-.289.265-.59.406-.894 1.219-2.207 4.867-6.672 7.184-9.391 2.89-3.469 5.71-11.285 6.558-16.625m-145-30.488q.063.007.125.007a.96.96 0 0 0 .938-.812c.144-1.191.386-2.2.629-2.844q.008-.023.02-.047c.206.743.437 2.02.433 3.434.004.055 0 .11.004.168a.94.94 0 0 0 .937.926h.012a.94.94 0 0 0 .93-.899l.003-.011-.003-.063c-.239-2.773-.075-5.09-1.922-5.871-.032-.04-.063-.04-.067-.055-.14-.054-.136-.035-.265-.047l-.035-.004-.032.008c-1.953.508-2.011 2.563-2.515 5.032a.943.943 0 0 0 .809 1.078m136.433 29.066-.238-.082.238.078c1.207-3.555 1.37-8.902 1.379-12.012 0-1.453-.035-2.398-.035-2.398a.953.953 0 0 0-.946-.914h-.008c-.007-.004-.027-.004-.07.004-.469.015-.863.433-.86.937 0 0-.003.028.005.067.004.195.035 1.039.035 2.304.004 3.012-.207 8.329-1.274 11.395-1.078 3.11-2.55 6-3.777 8.066.375-.898.734-1.785 1.074-2.652 1.324-3.422 1.824-8.852 1.828-13.828 0-2.149-.109-4.207-.28-5.945a.94.94 0 0 0-.93-.844c-.032 0-.07 0-.122.012a.91.91 0 0 0-.683.43.94.94 0 0 0-.887-.645c-.004.004-.004 0-.008 0q-.006-.001-.047.004a.93.93 0 0 0-.851.71h-.043l.008.258c0 .004.02.586.02 1.532v.109c0 2.535-.212 7.523-1.24 10.074-.25.633-.616 1.367-1.062 2.156.414-1.101.696-2.12.786-3.007.167-1.848.238-4.157.238-6.43 0-1.856-.051-3.684-.137-5.211a.94.94 0 0 0-.934-.887c-.007 0-.027-.004-.082.008a.926.926 0 0 0-.859.934s-.008.035.004.09c.078 1.449.133 3.25.129 5.066.004 2.234-.07 4.504-.23 6.258-.204 2.797-3.942 9.281-6.504 13.37a.93.93 0 0 0-.149.497c0 .266.117.531.344.719a.94.94 0 0 0 .601.215.94.94 0 0 0 .63-.235c1.968-1.793 7.245-8.601 8.972-12.844 1.066-2.718 1.309-6.84 1.355-9.609.051 1.02.079 2.106.075 3.215.004.02 0 .05 0 .094.004 4.797-.543 10.117-1.688 13.047-1.777 4.52-4.035 9.535-6.758 13.71a.93.93 0 0 0-.156.512.95.95 0 0 0 .371.75.946.946 0 0 0 1.278-.125c.898-1.015 4.515-6.215 5.796-7.89 1.368-1.797 3.954-6.082 5.692-11.063M34.69 59.914c-.367 0-.543-.262-.543-.39 0-.133.176-.399.543-.399.375-.004.551.262.551.402 0 .125-.176.391-.55.387m0-2.672c-1.266 0-2.407.946-2.426 2.278.015 1.34 1.16 2.285 2.425 2.277h.012c1.262 0 2.406-.942 2.422-2.274-.016-1.336-1.164-2.28-2.434-2.28m4.317 23.41c-.106.593-.2 1.195-.285 1.82-.336 2.441-.5 4.718-.5 6.593.172 2.672-.121 4.653 1.734 5.446l.035.015h.04q.052.005.081.004h.016l.031.016.086-.016c1.629-.34 1.902-1.82 2.633-3.672.644-1.976 1.226-4.629 1.633-7.593.062-.454.11-.875.152-1.293.004-.035.004-.075.004-.106a.94.94 0 0 0-.836-.93q-.053-.004-.105-.003a.935.935 0 0 0-.934.836c-.047.425-.09.828-.145 1.242-.398 2.86-.964 5.441-1.55 7.246-.258.781-.52 1.43-.746 1.867a13.3 13.3 0 0 1-.258-2.676q-.001-.187.004-.375c0-1.777.164-3.976.484-6.34.082-.601.18-1.18.273-1.765q.012-.082.012-.156a.93.93 0 0 0-.777-.922q-.074-.014-.16-.016a.94.94 0 0 0-.922.777m132.16-10.492c1.648-1.12 4.887-3.332 6.629-4.566 1.652-1.196 3.117-3.035 3.137-5.25 0-.028-.004-.028 0-.028 0-1.257-.524-2.55-1.618-3.68-.78-.796-1-1.374-1.011-1.671l.007-.016-.011-.074q-.002-.025-.004-.031c-.059-.356.855-1.117 2.496-1.39.89-.169 2.738-.306 5.027-.306 3.785 0 8.82.36 13.227 1.387 5.016 1.16 9.656 4.063 11.863 5.59l-4.898 1.969-6.309-3.938a.941.941 0 0 0-1.293.305.96.96 0 0 0-.144.5c0 .312.16.617.445.797l.246.152-1.191-.71a1 1 0 0 0-.48-.134.95.95 0 0 0-.813.461.95.95 0 0 0-.133.485c0 .316.16.629.457.804l4.984 2.98-.453.184a.7.7 0 0 0-.156-.144l-5.52-3.238a.934.934 0 0 0-1.285.34.93.93 0 0 0-.097.726.7.7 0 0 0-.254-.039h-.055a5.5 5.5 0 0 0 .176-1.34v-.066c-.016-2.125-1.024-4.364-2.766-5.621-.851-.598-1.86-.828-2.832-.828-2.238.035-4.758 1.14-5.094 3.484a.3.3 0 0 0-.007.078.945.945 0 0 0 .95.953h.003l.011.016.141-.02h.02c.394-.023 1.457.89 1.457 1.543 0 .051.007.14.007.188v.074c.028.95-1.285 2.602-2.98 4.715-1.711 2.183-7.54 8.015-7.586 8.066a.9.9 0 0 0-.254.64.92.92 0 0 0 .207.59.9.9 0 0 0 .238.212l-.039.015c-1.636-1.699-3.394-3.258-4.445-4.164m26.059-4.531-4.094-2.375q.046-.058.094-.121.092.136.25.23l3.816 2.239Zm-5.891-3.168c-1.262.984-5.328 3.64-9 5.996.89-.96 1.684-1.852 2.195-2.5 1.606-2.129 3.301-3.742 3.375-5.934 0-.148-.008-.257-.008-.324h-.246l.246-.035c-.203-1.336-1.058-2.46-2.18-2.977.56-.546 1.665-1.046 2.759-1.039h.046c.696 0 1.317.172 1.758.485 1.121.765 1.98 2.543 1.973 4.039q-.001.008.004.074c-.004.953-.317 1.73-.922 2.215m-12.95 10.746c.731-.46 1.65-1.043 2.665-1.687l.62.367Zm-3.019 3.172c.113 0 .235-.024.352-.067l7.996-3.218a.955.955 0 0 0 1.18-.383.3.3 0 0 0 .039-.106l.761-.304a.3.3 0 0 0 .059.004c.293-.024.383-.203.422-.203l4.902-1.97q.166.065.348.063a.93.93 0 0 0 .812-.465q.022-.041.032-.078l.792-.32a.1.1 0 0 0 .036.004c.28-.04.285-.18.3-.137l19.801-7.965a.94.94 0 0 0 .578-.738c.008-.05.008-.098.008-.137a.95.95 0 0 0-.351-.734l-.141.152.125-.164c-.238-.175-6.55-5.18-13.945-6.906-4.614-1.074-9.754-1.437-13.653-1.441-2.367.004-4.254.129-5.37.34-1.845.347-3.915 1.167-4.024 3.296.008 1.035.543 2.02 1.539 3.043.82.864 1.086 1.637 1.094 2.399v.023c.007 1.285-1.008 2.738-2.36 3.696a379 379 0 0 1-4.687 3.246c-.805.546-1.535 1.046-2.067 1.406-.265.183-.48.328-.629.43l-.171.117c-.02.011-.036.023-.047.027l-.008.008v.004a.96.96 0 0 0-.418.734v.035a.92.92 0 0 0 .351.739c.024.023 3.125 2.546 5.653 5.27.18.194.433.3.691.3m8.281 20.25h-.25zc0-.363-.011-.582-.011-.582a.935.935 0 0 0-.938-.926c0 .008 0 .004-.008 0-.007-.004-.02-.008-.05.004a.93.93 0 0 0-.848.695h-.043l.012.258s.004.2.004.55v.142c.007 1.617-.254 5.918-1.438 7.59q-.075.118-.152.23c.426-1.235.68-2.442.687-3.57v-5.856a.93.93 0 0 0-.933-.93.93.93 0 0 0-.938.93v5.898c.012 2.81-2.457 7.348-5.066 10.684a.935.935 0 0 0 .105 1.27.97.97 0 0 0 .645.25.93.93 0 0 0 .633-.25c1.453-1.356 4.718-4.813 6.586-7.602 1.69-2.633 1.722-7.14 1.753-8.785M24.528 76.297H24.5l-.055.18a94 94 0 0 0-1.238 4.433c-1.32 5.317-2.043 10.11-2.043 13.215.094 1.836-.008 3.36 1.52 4.04.148.034.25.054.367.054h.02c1.847-.309 2.566-2.184 3.855-4.848 1.191-2.738 2.422-6.473 3.476-10.664a98 98 0 0 0 .961-4.355.94.94 0 1 0-1.848-.36 93 93 0 0 1-.94 4.262c-1.028 4.105-2.243 7.77-3.372 10.363-.558 1.29-1.105 2.324-1.558 2.985a5 5 0 0 1-.415.52 7.7 7.7 0 0 1-.183-1.817v-.223c0-2.836.691-7.543 1.988-12.71a89 89 0 0 1 1.211-4.349.8.8 0 0 0 .043-.273.943.943 0 0 0-.945-.937.93.93 0 0 0-.817.484m156.043 15.55.035-.011c2.157-.707 1.958-3.223 2.18-6.258a.945.945 0 0 0-.937-.957.937.937 0 0 0-.942.942c-.008 1.44-.14 2.722-.347 3.57q-.036.159-.082.3a12.7 12.7 0 0 1-.704-3.144.95.95 0 0 0-.937-.836c-.035 0-.074 0-.133.012a.93.93 0 0 0-.789 1.066c.484 2.602.543 4.785 2.55 5.309l.056-.242v.25Zm17.504-22.617a.86.86 0 0 0-.398.094.93.93 0 0 0-.543.848c0 .121.02.254.078.379h.004c.035.09.863 1.898 1.879 3.754 1.164 1.832 1.87 3.808 3.656 4.168l.047-.246v.25q.07-.005.105-.004c.055 0 .09 0 .149-.032 1.297-.55 1.152-1.601 1.207-2.343-.004-1.426-.317-3.38-.625-4.996a79 79 0 0 0-.422-2.051c-.059-.262-.106-.473-.14-.617-.016-.075-.032-.133-.04-.172l-.008-.008v-.031l-.007-.032a.945.945 0 0 0-1.149-.68.93.93 0 0 0-.707.915.7.7 0 0 0 .028.222l.023.09c.164.692 1.168 5.121 1.168 7.293-.598-.773-1.363-2.12-2.008-3.351a79 79 0 0 1-1.023-2.024l-.391-.82-.027-.05q.001-.007-.004-.013a.94.94 0 0 0-.852-.543m-19.219 15.297c.227 0 .356-.047.38-.05l.038-.012.032-.024c1.379-.937 1.23-2.468 1.492-3.945.148-1.527.168-2.933.168-2.957l-.004-.012a.933.933 0 0 0-.918-.933q.017-.002-.02-.004a.93.93 0 0 0-.933.918c-.012.219-.035 1.457-.172 2.789-.047.555-.117 1.11-.211 1.566a10 10 0 0 1-.516-1.347 37 37 0 0 1-.668-2.258.95.95 0 0 0-.914-.707.936.936 0 0 0-.934.863h-.374l.418.39c.07.255.375 1.407.765 2.544.594 1.234.657 2.754 2.32 3.18zm44.875-4c2.254 6.687 3.524 12.777 3.52 15.937.004 0 0 .027.004.074 0 .668-.07 1.223-.164 1.527-.02.067-.04.118-.05.153-.466-.32-1.892-1.848-3.106-4.281-1.606-2.954-3.383-7.11-4.954-11.81a93 93 0 0 1-1.902-6.37.946.946 0 0 0-1.148-.668.946.946 0 0 0-.664 1.16 94 94 0 0 0 1.93 6.48c3.452 9.582 6.66 16.86 9.921 17.426h.02c.203 0 .36-.031.504-.07 1.386-.66 1.445-2.031 1.496-3.574-.008-3.586-1.32-9.73-3.621-16.578a95 95 0 0 0-2.258-6.024.94.94 0 0 0-1.809.352v.02h-.07l.14.343a93 93 0 0 1 2.211 5.902m-37.69 10.246c-.403-1.02-.954-3.335-1.067-5.878-.04-.497-.434-.883-.926-.883-.024 0-.047 0-.094.004a.92.92 0 0 0-.855.918c0 .007-.004.046.007.105.125 2.05.41 3.906.801 5.3.45 1.274.684 2.516 2.125 2.766l.063.024.066-.016c1.422-.293 1.586-1.496 1.91-2.636.278-1.29.426-2.973.426-4.88a46 46 0 0 0-.031-1.613l-.016-.144a.95.95 0 0 0-.93-.805c-.046 0-.105 0-.167.016a.93.93 0 0 0-.762.793h-.082l.09.351c.004.39.02.907.02 1.403 0 1.804-.15 3.386-.388 4.465a7 7 0 0 1-.19.71M44.886 82.352c-.035.293-.07.59-.102.93a46 46 0 0 0-.191 4.054c.222 3.254-.13 5.644 1.922 6.477l.039.015h.133c1.64-.34 1.8-1.738 2.374-3.36.485-1.761.891-4.105 1.126-6.714.007-.117.015-.203.015-.285v-.051a.935.935 0 0 0-.863-.938q-.031-.004-.086-.003a.935.935 0 0 0-.926.863c-.008.125-.012.21-.012.23-.23 2.532-.625 4.79-1.066 6.38a13 13 0 0 1-.45 1.359c-.163-.786-.331-2.059-.327-3.516q-.001-.224.004-.45c0-1.19.054-2.515.183-3.894.02-.285.063-.574.094-.902q.005-.048.004-.102a.925.925 0 0 0-.844-.922.932.932 0 0 0-1.027.828M192.07 93.829l.086.008h.043l.047-.016c2.094-.847 1.742-3.222 1.961-6.468 0-1.258-.05-2.63-.172-4.07-.031-.333-.07-.641-.105-.93a.94.94 0 0 0-.93-.84q-.052-.002-.121.008a.92.92 0 0 0-.738.55l-.157-.129.075.618c.035.312.074.597.097.89.121 1.38.172 2.703.172 3.887 0 1.566-.11 2.902-.281 3.781-.012.067-.027.137-.04.2-.542-1.356-1.253-4.395-1.5-7.723a.9.9 0 0 1-.015-.235.95.95 0 0 0-.949-.882c-.02 0-.043-.004-.094.003-.465.036-.844.446-.844.938 0 .004 0 .043.012.102 0-.004 0 .109.016.257.222 2.586.62 4.926 1.105 6.676l.242-.066-.238.086c.578 1.62.742 3.011 2.328 3.355m-2.593-12.351-.012.07.238.05q.082.019.2.02h.257v-.039c.996-.34.926-1.156 1.028-1.465.085-.566.113-1.203.113-1.898 0-2.192-.266-4.953-.262-4.957a.97.97 0 0 0-.195-.496l.219.218c.09.254.683 1.977 1.398 3.684.945 1.828 1.25 3.773 3.059 4.258l.308.074v-.176c1.61-.84 1.102-2.261 1.281-3.726 0-2.758-.375-6.29-.375-6.297-.062-.508-.46-.867-.933-.867-.031 0-.07 0-.125.011a.93.93 0 0 0-.813 1.051c-.004-.012.367 3.48.367 6.074 0 .371-.007.73-.027 1.043a23 23 0 0 1-1.148-2.5 68 68 0 0 1-1.22-3.289.96.96 0 0 0-.898-.64.9.9 0 0 0-.304.054.94.94 0 0 0-.637.86h-.312a.94.94 0 0 0-.59-.207c-.028 0-.059-.004-.102.008-.469.039-.832.449-.832.93 0 .023 0 .066.012.116-.008-.02.25 2.707.25 4.774v.101a15 15 0 0 1-.52-1.234 57 57 0 0 1-.695-1.84c-.086-.246-.156-.449-.203-.594-.027-.07-.043-.125-.059-.164q-.004-.006-.007-.02v-.003l-.008-.023v-.004l-.004-.008a.94.94 0 0 0-.89-.645.9.9 0 0 0-.31.055.925.925 0 0 0-.628.86h-.059a.94.94 0 0 0-.758-.387c-.02 0-.047 0-.09.007a.923.923 0 0 0-.847.926q-.001.013.004.078c.004.176.086 1.34.086 2.653 0 .71-.028 1.468-.098 2.054-.246-.449-.52-1.007-.715-1.53-.25-.602-.465-1.18-.617-1.606-.078-.215-.137-.395-.18-.516l-.05-.145q-.011-.023-.016-.043v-.003a.95.95 0 0 0-.895-.649c-.093 0-.199.016-.3.055a.93.93 0 0 0-.59 1.191l.007-.004c.094.344.485 1.43 1 2.68.696 1.273.918 2.79 2.547 3.18l.055-.242v.25c.3 0 .516-.118.625-.176 1.234-1.184 1.012-2.871 1.106-4.485 0-1.277-.07-2.425-.09-2.71.168.476.574 1.632 1.043 2.785.734 1.363.87 2.812 2.21 3.418m9.09 13.054.297.059v-.094c1.84-.805 1.543-2.777 1.723-5.422 0-1.886-.156-4.16-.492-6.601a43 43 0 0 0-.281-1.817.94.94 0 0 0-1.094-.765.94.94 0 0 0-.774.918c0 .046 0 .105.02.18.09.562.187 1.144.27 1.741.32 2.36.472 4.563.472 6.332 0 1.29-.09 2.352-.23 3.04q-.005.032-.016.062c-.703-1.375-1.781-5.043-2.29-9.144a33 33 0 0 1-.144-1.25.95.95 0 0 0-.925-.836c-.036 0-.082 0-.133.011a.93.93 0 0 0-.82.922c0 .028 0 .078.011.137.04.379.082.808.145 1.266.398 2.949.976 5.613 1.62 7.57l.235-.078-.23.09c.73 1.859 1.007 3.347 2.636 3.68m7.606 1.843c.043 0 .074.004.105.004a1 1 0 0 0 .13-.012l.034-.004.032-.011c1.808-.778 1.597-2.66 1.746-5.18 0-2.524-.313-5.817-.934-9.406a77 77 0 0 0-.597-3.067.945.945 0 0 0-1.137-.715.93.93 0 0 0-.703 1.13q.314 1.415.593 2.984c.598 3.488.895 6.707.891 9.058.004 1.219-.082 2.215-.223 2.836q-.021.104-.05.192c-.922-1.32-2.551-6.11-3.446-11.602a85 85 0 0 1-.394-2.566.936.936 0 0 0-.922-.809 1 1 0 0 0-.156.016.916.916 0 0 0-.79.914c0 .039 0 .093.012.16.106.832.242 1.703.399 2.601.613 3.586 1.433 6.805 2.273 9.168l.238-.086-.234.098c.95 2.27 1.395 3.965 3.133 4.297m9.535 1.84h.043c.133 0 .219-.016.3-.028 1.598-.703 1.497-2.222 1.59-4.054 0-3.113-.71-7.903-2.03-13.223a87 87 0 0 0-1.247-4.433.94.94 0 0 0-.902-.665.93.93 0 0 0-.93.89l-.062.001.097.324a86 86 0 0 1 1.22 4.344c1.292 5.195 1.98 9.922 1.976 12.75.004.867-.07 1.57-.176 1.977q-.001.017-.008.035c-1.242-1.266-3.7-7.051-5.336-13.88a88 88 0 0 1-.941-4.265.94.94 0 0 0-.914-.758.8.8 0 0 0-.203.024.92.92 0 0 0-.743.91c0 .059 0 .125.02.2.27 1.382.574 2.827.953 4.335 1.047 4.203 2.277 7.942 3.465 10.668l.226-.101-.222.105c1.285 2.66 2.012 4.535 3.824 4.844M45.379 79.012c0 .441.316.84.77.925a1 1 0 0 0 .163.012c.442 0 .84-.308.93-.761.27-1.418.586-2.602.89-3.364q.015-.04.028-.082c.168.79.332 2.055.328 3.5 0 .149 0 .297-.004.453v.18a.94.94 0 0 0 .946.938c.52 0 .937-.418.937-.938v-.176c0-1.656-.105-3.074-.316-4.148-.246-.957-.348-2.031-1.621-2.348-.055-.012-.082-.012-.145-.02h-.039l-.035.008c-1.98.555-2.07 2.735-2.813 5.63l.243.062-.246-.047a1 1 0 0 0-.016.176M206.21 67.91c-.176-.3-.316-.55-.414-.722-.05-.09-.086-.157-.117-.204q-.017-.036-.028-.054-.005-.005-.011-.016l-.008-.016a.94.94 0 0 0-.82-.468.86.86 0 0 0-.458.12.91.91 0 0 0-.48.813.95.95 0 0 0 .121.461c.121.23 1.18 2.149 2.441 4.125 1.461 2.047 2.473 4.18 4.29 4.512h.03a.8.8 0 0 0 .243-.023c1.188-.434 1.137-1.41 1.164-1.97-.016-2.937-2.074-9.35-2.066-9.359-.13-.441-.5-.703-.903-.699a.9.9 0 0 0-.289.047.934.934 0 0 0-.605 1.188l.035.09c.234.753 1.777 5.964 1.93 8.316-.758-.832-1.801-2.399-2.688-3.84a96 96 0 0 1-1.367-2.3M39.68 77.42c0 .427.289.813.726.915a.941.941 0 0 0 1.133-.687c.371-1.551.79-2.833 1.16-3.676.059-.13.117-.246.172-.356.125.598.25 1.524.246 2.613q.001.205-.004.426 0 .787-.035 1.668v.047c0 .5.395.914.899.934l.035.004a.95.95 0 0 0 .949-.899l.016-.265h-.012q.03-.774.031-1.489c-.187-2.664.137-4.64-1.726-5.433h-.004q-.005-.005-.016-.004l.004-.004h-.008v.004a1.3 1.3 0 0 0-.195-.031h-.04l-.038.007c-2.012.524-2.297 2.832-3.262 5.989l.242.07-.246-.059a1 1 0 0 0-.027.227m10.683 6.457-.008.043h.004v.004h.032l.21.035-.246-.012a41 41 0 0 0-.035 1.656c0 1.91.145 3.59.422 4.868.32 1.156.496 2.351 1.89 2.636.056.004.079.004.087.004h.004c1.5-.25 1.722-1.496 2.168-2.761.394-1.403.687-3.258.828-5.34.004-.028.004-.043.004-.055a.95.95 0 0 0-.88-.95h-.058a.933.933 0 0 0-.941.884c-.133 1.968-.418 3.73-.758 4.933a8 8 0 0 1-.32.942c-.27-.899-.582-2.723-.578-4.77q0-.195.007-.383c0-.508.012-1.02.04-1.547v-.03q.004-.015.003-.052a.936.936 0 0 0-.863-.941q-.033-.005-.086-.004a.93.93 0 0 0-.926.84m-13.379-15.61c-2.195.512-2.75 3.208-4.004 7.008a.938.938 0 0 0 .91 1.207.95.95 0 0 0 .903-.68c.516-1.867 1.066-3.41 1.562-4.44a7 7 0 0 1 .48-.86c.134.547.259 1.539.255 2.73v.227c0 .922-.043 1.98-.133 3.133 0 .015-.004.039-.004.07a.937.937 0 0 0 .918.938h.035a.94.94 0 0 0 .934-.864c.094-1.199.133-2.297.133-3.277-.149-2.5.09-4.39-1.711-5.152l-.094.23.074-.238a1 1 0 0 0-.258-.031m14.653 13.16c.46 0 .86-.336.933-.797.192-1.281.45-2.363.715-3.043q.034-.084.063-.16c.242.8.527 2.297.547 3.98.02.516.437.918.94.914h.044c.5-.02.89-.433.898-.93v-.042c-.304-3.016-.164-5.399-2.039-6.192-.039-.058-.074-.035-.078-.058-.117-.047-.129-.032-.25-.043l-.039-.004-.027.011c-1.98.508-2.059 2.625-2.633 5.27a.6.6 0 0 0-.02.164.94.94 0 0 0 .946.93M212.96 65.46c-.266-.41-.48-.757-.625-1q-.112-.18-.172-.28l-.023-.04v-.003l-.036-.059a.95.95 0 0 0-.808-.453.9.9 0 0 0-.484.137.93.93 0 0 0-.454.8c0 .165.043.336.133.489l.465.777v-.02c.531.856 1.45 2.297 2.492 3.77 1.715 2.234 3.16 4.594 5.133 4.863h.012c.32 0 .586-.093.793-.21.84-.653.875-1.504.898-2.266-.012-1.781-.637-4.36-1.254-6.52a71 71 0 0 0-.851-2.754c-.114-.351-.211-.636-.278-.836l-.082-.23q-.012-.04-.02-.059h-.003c-.152-.425-.516-.664-.899-.66a1 1 0 0 0-.304.051.95.95 0 0 0-.633.89c0 .102.016.212.059.321l.011.023.02.055c.234.664 2.363 6.996 2.347 9.664.004 0-.003.035.008.106-.004-.012-.004.03-.004.066 0 .152-.011.266-.023.356-.633-.493-2.29-2.22-3.395-3.942l-.207.137.203-.145a67 67 0 0 1-2.02-3.027M17.43 71.93a.9.9 0 0 0 .39.086.96.96 0 0 0 .856-.54l-.223-.109.227.102c.968-2.223 2.035-4.02 2.914-5.258.437-.617.828-1.098 1.133-1.414.152-.156.285-.277.378-.352l.036-.023q.021.06.05.148c.094.313.168.868.164 1.57 0 1.497-.285 3.704-.828 6.305a.8.8 0 0 0-.023.192.94.94 0 0 0 .941.937h.008a.93.93 0 0 0 .914-.746l.067-.297h-.008c.527-2.558.804-4.738.812-6.39-.054-1.543-.097-2.922-1.449-3.555a1.6 1.6 0 0 0-.531-.09c-2.36.356-3.957 3.52-6.285 8.176a.9.9 0 0 0-.094.398c0 .356.207.696.55.86m13.106-6.543c-2.265.453-3.25 3.441-4.984 7.754a.944.944 0 0 0 .566 1.215.9.9 0 0 0 .317.05.94.94 0 0 0 .882-.613c.758-2.121 1.528-3.871 2.188-5.043.332-.57.637-1.012.863-1.258.09.367.184 1.02.176 1.79v.179c0 1.336-.148 3.113-.445 5.152a2 2 0 0 0-.008.14.933.933 0 0 0 .937.942c.461 0 .864-.336.934-.808.309-2.11.465-3.957.465-5.426-.094-1.828.02-3.344-1.508-4.02l-.098.23.055-.241a1.3 1.3 0 0 0-.34-.043M64.875 86.336c1.441-6.332 4.61-11.227 8.64-13.965 3.31-2.242 1.434-2.734-1.44-.43-2.88 2.305-8.927 8.063-10.079 18.86-.363 3.41-.133 6.242 2.621 12.715.469-1.364.95-2.715 1.52-4.032-1.43-3.625-2.352-8.347-1.262-13.148M176.828 90.8c-1.152-10.796-7.2-16.554-10.078-18.859-2.879-2.304-4.75-1.812-1.441.43 4.03 2.734 7.199 7.633 8.636 13.965 1.157 5.078.043 10.059-1.52 13.758.56 1.336 1.044 2.71 1.5 4.097 3.04-6.976 3.278-9.859 2.903-13.39" style="stroke:none;fill-rule:nonzero;fill:#231f20;fill-opacity:1"/><g clip-path="url(#a)"><path d="M208.336 159.215c-.11-.348-.254-.625-.316-.762-.364-.695-.524-1.133-.598-1.414.383.024.531.129.808.352.352.261.825.625 1.61.828.023-.004.05.015.074.023q-.986.38-1.578.973m.516 3.637c-.52.925-1.301 1.847-2.329 2.746-.035-.028-.062-.055-.097-.078-.883-.665-1.707-1.055-2.485-1.247-.144-1.593-.093-2.867.07-3.378.829.308 1.673.523 2.497.734.558.148 2.191.559 2.512.844-.024.058-.06.183-.168.379m-4.207 13.187c-1.594 2.59-9.618 3.664-14.805 3.59-.617-.012-1.164.414-1.332 1.016-1.153-.27-1.86-.704-2.094-1.305-.324-.82.149-1.965.387-2.469 4.418.75 7.789-3.629 10.039-6.539.488-.629.894-1.164 1.222-1.508 2.329-2.527 4.352-4.277 7.418-1.972 3.008 2.265 2.211 4.203-.835 9.187m-27.86 14.32c-4.972 2.118-6.234 4.938-6.555 6.125-.851.18-2.578.399-3.867-.27.309-8.597 1.078-9.702 1.957-10.984.524-.746 1.098-1.585 1.676-3.324 1.367-4.117 4.422-5.043 9.055-6.437l.512-.156c3.195-.965 5.105.148 5.843.738-.441.87-1.047 2.472-.484 3.898.426 1.086 1.441 1.832 3.02 2.254-1.481 2.793-5.489 5.754-11.157 8.156m-2.96 15.54c-.012.292.066.593.222.847.031.223.047 1.922-4.227 5.723-5.152 4.601-13.476 2.199-17.949.914l-.07-.024c-.422-.125-.824-.234-1.176-.332-3.762-1.015-7.363.024-8.363.356.02-1.094-.016-2.774-.383-3.781-.406-1.118.687-2.258 1.379-2.84 1.36-.242 2.36-.575 3.09-.914.445-.02 1.414-.121 2.379-.633-.305.68-.829 2.039-.114 2.23.95.243 3.067.621 2.121-2.824.723.047 1.703-.05 2.95-1.098.078-.066.148-.136.21-.218 1.27-1.672 2.094-1.766 3.145-1.89.629-.083 1.344-.173 2.09-.571.043-.031.078-.051.105-.074 2.332-1.586 6.18-3.012 6.22-3.02a.3.3 0 0 1 .07-.04c1.003.509 3.085 1.298 4.949.376.015.012.023.035.043.055.336.359.71.629 1.105.832-.684.707-1.062 1.726-1.129 3.066-.043.934.25 1.758.863 2.422.641.703 1.56 1.152 2.47 1.437m-.235-6.41c2 .09 4.379-.77 6.851-1.664 1.047-.379 2.125-.77 3.176-1.09 3.852-1.156 9.762-1.73 13.762.493 3.18 1.773 3.203 4.574 3.203 4.699-.004.203.043.414.117.594.004.011.684 1.699.047 3.18-.422.98-1.351 1.734-2.766 2.238-4.644 1.644-11-.555-14.414-1.747a49 49 0 0 0-1.336-.449c-3.035-.969-6.804-1.176-6.964-1.183-.149-.004-.301.007-.45.046-2.312-.445-2.605-1.12-2.691-2.832-.074-1.375.785-2.007 1.465-2.285m-32.86 10.883c.188 1.086.31 2.871.368 4.004-2.696 3.965-4.473 3.688-4.493 3.691 0-.007-.003 0-.007 0a.5.5 0 0 0-.118-.03l-.75-.141c-1.035-.954-2.804-2.04-4.472-2.961.043-.364.058-.97-.203-1.438-.301-.555-1.477.004-1.977.29-.898-.466-1.582-.786-1.836-.907.008-.024.008-.043.016-.07a1 1 0 0 0 .035-.157c.11-.422.293-1.144-.145-1.757-.402-.579-1.222-.899-2.523-.989a2 2 0 0 1-.664-.168c.898-.289 1.781-1.058 2.777-1.941 2.403-2.129 5.407-4.785 10.867-2.707a.13.13 0 0 0 .063.012c.012 0 .324.023.77-.063.296.7 1.05 1.75 2.96 1.875-.835 1-.914 1.961-.668 3.457m-2.851 11.84c-1.512-.129-3.238-.906-5.125-2.328a1.35 1.35 0 0 0-1.477-.106 1.39 1.39 0 0 0-.707 1.309c.024.492.125 1.027.301 1.52-.984-.27-1.8-.926-2.394-1.961-2.028-3.497-4.622-4.356-6.227-4.032a2.4 2.4 0 0 0-.828.325c.226-.458.367-.977.414-1.586.773.078 3.148.191 4.293-1.063.129.106.273.172.418.219.125.047.27.062.422.062 1.406.684 5.941 2.93 7.707 4.57.422.387.804.798 1.183 1.204.586.629 1.246 1.324 2.02 1.867m-19.684-3.566c.735.003 1.649-.149 2.387-.704a3 3 0 0 0-.078.34c-.043.309-.09 1.36 1.164 2.043.027.016.05.031.09.043-.38.153-1.985.606-3.563-1.722m-1.187-2.094c.629-.875 1.097-2.156 1-4.012-.203-3.95-2.735-5.332-6.692-5.637.95-.156 2.047-.457 3.383-.957 2.48-.933 3.739.024 4.973 1.535.348.59.719 1.114 1.16 1.512.98 1.274 2.055 2.453 3.684 2.563.863.062 1.191.226 1.308.293-.015.062-.027.175-.09.394-.007.074-.03.137-.043.2-.02.081-.039.16-.046.238-.899.64-2.786 1.507-5.75.617a.22.22 0 0 0-.196.023c-.054.051-.582.457-.199 1.743.102.355.11.62 0 .792-.21.329-.887.454-1.582.543-.285.043-.598.09-.91.153m-2.235-.403c-.335-.964-1.707-4.023-5.66-5.273-4.84-1.512-6.668-3.078-7.539-6.441a.26.26 0 0 0-.129-.16c-.086-.036-.855-.364-1.3.011-.266.227-.336.637-.204 1.215.047.152 1.118 3.793 4.59 5.309.633.273 1.297.53 1.938.78 2.422.934 4.722 1.829 5.761 3.712-.37.23-.632.629-.668 1.09l-.574 6.613q-.938-.54-1.11-1.754a1.5 1.5 0 0 0-.206-.574c.238-1.29.601-3.7.398-4.914-.097-.567-.312-.918-.652-1.043-.574-.211-.957.277-1.023.336-.075.062 1.093 5.691-2.247 7.097-.964.403-2.308.489-3.324.758-.773.211-1.539.621-1.61.63.227-2.892 4.829-4.017 4.665-7.044-.14-2.469-2.535-4.66-3.02-5.082-.152-.14-3.156-3.02-3.863-6.234a.26.26 0 0 0 .059-.22c-.07-.257-.137-.526-.203-.796-.02-.367-.004-.73.054-1.098.555-3.336 2.633-6.996 6.688-6.324.219.203 1.23.29 2.07 1.145.484.605.723 1.265.77 1.558.27 1.606-1.922 2.215-1.98 2.188-.028-.035-.138-3.235-1.852-3.14-1.446.07-2.903 1.609-3.2 3.152-.324 1.714.594 3.125 2.457 3.75.637.207 1.18.421 1.711.625.899.343 1.696.64 2.535.832-.074 0-.16.011-.242.003a.23.23 0 0 0-.215.176c-.003.043-.09.383.188.781.379.547 1.246.887 2.582 1.004 2.809.239 5.71.864 5.855 3.72.114 2.245-1.003 3.273-1.5 3.612m-17.558 1.082c-1.344.801-2.09.852-2.809.899-.676.047-1.437.094-2.304.664a1.4 1.4 0 0 0-.594.844.5.5 0 0 1-.035.125c-.063-.09-.125-.172-.172-.25a1.5 1.5 0 0 0-.426-.438c-.11-.07-2.805-1.832-5.465.102a8 8 0 0 1-.738.484c-.059-.074-.125-.172-.18-.25l-.105-.152c-1.227-1.781-2.91-1.922-4.543-2.059h-.059c-.086-.012-.172-.012-.242-.023.125-.762.055-1.274-.59-1.914-.215-.207-.652-.64-1.512-1.969-1.43-2.215.47-5.77 1.09-6.938.586-1.082 4.426-3.851 8.059-3.98 2.953-.105 8.344 1.543 10.691 2.32.48 4.172 4.332 7.793 4.528 7.973.007.012.351.3.785.762-2 1.277-4.973 3.496-5.38 3.8m-21.855-5.136c-3.015.238-5.004.687-5.925 1.355-.852.617-4.47.973-7.325.942-.16.004-.32.03-.464.086-4.23 1.515-10.477-.93-10.536-.957a1.34 1.34 0 0 0-1.293.164 1.4 1.4 0 0 0-.582 1.187c.012.5-.062 1.356-.672 1.613-.652.27-1.914-.086-3.167-1.496-.649-.726-.985-1.394-.91-1.773.066-.309.445-.793 1.87-1.422.875-.383 1.387-.953 1.512-1.684.203-1.136-.633-1.957-1.187-2.507-.094-.09-.223-.215-.325-.32.137-.25.442-.645.766-.942a1.43 1.43 0 0 0 .348-1.645c-.309-.695-.348-1.242-.324-1.523 1.964-.473 4.25-3.766 4.27-3.797.237-.387.304-.852.187-1.312-.547-2.125-7.493-6.083-7.559-6.122-1.492-.816-2.332-1.726-3.309-2.78-.464-.505-.941-1.028-1.511-1.556-.63-.574-1.024-3.964-.828-7.105.12-1.582.574-2.695 1.351-3.293 1.25-.973 3.25-.586 4.207-.39.496.097.793.156 1.156.058.172-.043.317-.102.473-.168.328-.125.453-.16.5-.16q.007.01.008.02c.328.41.387.562.48.831.114.282.242.645.578 1.204.399.668 1.372 1.87 2.5 3.273.805.996 1.641 2.035 2.164 2.766.782 1.078 2.31 3.78 4.297 7.617.27.515.164 2.918-.214 5.047-.051.273-.016.543.085.793-.234.906-.46 2.16-.03 2.422.585.343 1.277.078 1.917-1.696.223-.11.422-.281.555-.512l-.004.008c.02-.023.422-.465 3.773.051l.164.024c1.293.195 3.446.984 4.293 1.69.32.27.895.817 1.57 1.45 1.52 1.426 3.598 3.371 5.028 4.363a8.4 8.4 0 0 0 3.063 1.325c-.586 1.343-1.157 3.152-.95 4.87M38 176.669a55 55 0 0 1-2.086-1.77c-.059-.05-.09-.093-.117-.12.262-.571 2.055-1.65 3.523-1.778.399-.031.973.883 1.352 2.05-.66.13-1.324.384-1.902.84a4 4 0 0 0-.77.778m-2.219-6.023a.62.62 0 0 1 .418-.204.624.624 0 0 1 .64.594.623.623 0 0 1-.577.656.6.6 0 0 1-.438-.16.644.644 0 0 1-.043-.886m11.45 2.316c3.171-3.477 4.3-3.508 4.687-3.211.078.145-.023.719-.973 2.59-.574 1.148-1.086 2.164-1.011 3.113a31 31 0 0 0-2.012.977c-.106-.235-.274-.508-.578-.91a1.8 1.8 0 0 0-.727-.547c-.097-.403-.137-1.196.613-2.012m5.524-.621q.322-.151.668-.309c3.75-1.691 4.656-.883 6.473.727.972.875.949 2.574-.106 5.36-.18.491-.496.737-.82.85.254-.69.347-1.308.261-1.855-.23-1.5-1.644-2.222-2.777-2.808l-.058-.024c-1.11-.57-2.997-.16-4.766.485.148-.473.45-1.07.746-1.653.129-.258.25-.511.379-.773m7.402-3.434c1.114-.02 1.668.106 1.922.2-.543 1.265-.726 1.34-1.953.808-.398-.168-.781-.32-1.168-.457.45-.355.855-.547 1.2-.55m-6.864 15.027a4 4 0 0 0-.195-.282c-.547-.754-1.395-1.804-2.215-2.824-.906-1.133-1.836-2.289-2.254-2.914 3.043-1.648 6.168-2.601 7.059-2.152l.05.027c1.055.54 1.805.969 1.903 1.574.086.57-.18 2.336-4.348 6.57m8-5.214c.145-.38.285-.793.414-1.215.898 1.086 2.035 2.625 2.555 3.988.25.656.773 1.266 1.554 1.817-2.386 2.148-6.836 6.082-8.578 7.632-.968-1.87-2.11-4.011-3.054-5.593 1.757-1.758 3.05-3.297 3.898-4.63.668.04 2.484-.058 3.211-2m6.965 4.571c.418-.398.933-.848 1.484-1.328 1.45-1.25 3.09-2.676 4.082-4.152l.246-.375c.45-.676 1.2-1.793 1.578-1.868.079-.004.266.07.516.262.629.508 1.227 1.168 1.813 1.813 1.164 1.293 2.363 2.632 4.078 3.004.234.054 1.511.492 3.187 3.996.301.632.84 1.07 1.54 1.27q.145.698.75 1.167c1.8 1.406 3.382 1.516 4.78 1.606 1.083.078 2.016.132 2.766.836 2.106 1.949 4.059 3.246 5.809 3.859.8.281 1.836.992 2.761 1.719-3.18.5-5.609 3.355-6.324 7.687-.011.063-.015.121-.023.184a66 66 0 0 0-4.543-1.309c.066-.308-.156-.863-.461-1.558-.55-1.262-2.402-2.672-1.973-1.395 0 0 .196.652.153 1.445-.016.38.03.743.203 1.04-1.282-.266-2.532-.434-3.59-.47-.028-.277-.188-.62-.48-.992-.735-.921-.934-.742-.989-.285 0 0-.223.813.078 1.352-1.562.195-3.14.77-4.523 1.492.117-.45-.059-1.137-.235-1.726-.242-.817-.414-1.684-.703-1.09 0 0-.722.875-.547 1.984.121.75.371 1.156.696 1.277-1.621.957-2.852 2.059-3.266 2.832a.6.6 0 0 1-.066.121 7 7 0 0 1-2.918-1.156c-.989-.687-2.352-1.91-3.602-3.058.121-.813.285-2.282-.047-2.621-.43-.43-1.07.144-1.375 1.28-.605-.566-1.125-1.054-1.445-1.32a5 5 0 0 0-.766-.523c.016-.66-.023-1.676-.386-1.766-.43-.117-.711.575-.809 1.176-1.043-.453-2.219-.793-3.113-.937l-.164-.024a6 6 0 0 0-.489-.07c.18-.672.41-1.691.086-1.621-.375.082-1.004.777-1.433 1.465-1.102-.086-2.274-.051-3.012.41.152-1.016.383-2.945.23-4.32l.168-.137c2.086-1.84 8.938-7.91 10.278-9.176m40.512 19.066c.73-.574 1.308-1.703 1.14-3.101-.012-.094-.027-.184-.043-.281 2.86 1.453 6.465 3.492 7.664 5.02.016.015.028.042.043.062-.949-.239-2.066-.172-3.43.336-4.156 1.554-5.527 1.035-8.015.082a39 39 0 0 0-1.777-.653c-1.059-.355-1.536-1-1.375-1.855.195-1.012 1.144-1.86 1.507-1.828.04 0 1.063.425.704 2.375-.137.785 2.539.66 3.582-.157m-20.313-17.421.063-.043c.062-.04.101-.13.101-.211l-.004-.125c.57-1.14 1.942-2.66 3.016-3.582.476-.38.734-.504.836-.54.043.028.097.07.195.16.707.66 1.375.716 1.813.645.425-.062.812-.289 1.113-.617 1.644-1.316 3.09-.766 3.152-.742.176.074.371.11.551.105 2.559-.066 3.477 1.227 5.144 3.57.317.442.676.95 1.07 1.47 1.75 2.312 5.473 3.925 8.923 5.148-.032.027-.067.05-.082.078 0 0-.563.46.062 1.219.637.75 2.27 2.719 2.477 2.164.187-.512-.434-2.203-.782-2.883.356.125.72.242 1.055.352.684.226 1.39.457 1.985.671 3.94 1.41 6.953 1.704 10.64-.96 2.61-1.872 3.754-1.141 4.531-.184 1.04 1.27 2.516 1.848 4.075 2.457.71.281 1.445.566 2.156.93.734.386.898.71.898.777 0 0 0-.008.004-.02-.004.012-.004.012-.004.028-.023.054-.05.12-.066.176-.008.02-.625 2.695-1.402 6.261-.41 1.922-1.551 2.196-2.059 2.215-6.207-2.246-9.832.965-12.238 3.102-.907.8-1.832 1.625-2.403 1.66-.53.023-.925-.078-1.277-.367q-.141-.189-.29-.383c-.23-.297-.46-.61-.71-.918l-.496-.871c-.461-.836-.988-1.79-1.719-2.723-1.726-2.187-7.137-4.984-10.148-6.43a4.75 4.75 0 0 0-2.301-1.304c-1.133-1.02-3.305-2.832-4.934-3.395-1.539-.539-3.304-1.726-5.246-3.527-.687-.64-1.426-.934-2.176-1.082-.187-.945-.543-2.36-1.015-2.332-.54.02-.934 1.426-1.094 2.11-1.062-.083-2.164-.286-3.363-1.227-.145-.114-.164-.18-.164-.282a1.5 1.5 0 0 1 .113-.55m54.48 10.457a1.64 1.64 0 0 0 .083-.903c.437-.675.812-2.02 1.238-4.734.48-3.066 2.367-4.426 5.226-6.48l1.227-.88c2.719-2 4-1.75 4.012-1.742.011 0 .02.008.03.008.09.031.18.04.27.055-.164.437-.378 1.328.59 1.234 1.27-.117 2.258-.992 1.008-2.445.426-.79 1.207-2.219 1.207-2.219.137-.265.2-.558.156-.863a1.7 1.7 0 0 1-.004-.43c.149-.004.458.024.75.121.516.2 1.098.059 1.473-.347.434-.477.707-.582.774-.582.074.011.296.257.418.5.234.527.761.859 1.316.828.074 0 .125.008.168.008.031.187.016.683-.168 1.816-.117.816-.25 1.652-.117 2.383-.32.308-1.313.84-2.317 1.156-.535.164-.91.64-.972 1.2-.051.538.203 1.062.64 1.355.024.265-.226 1.125-.324 1.422-.383 1.32-.867 2.964-.129 4.539.117.265.117.265-.695.98-.766.672-1.926 1.68-2.672 3.426-1.074 1.492-3.758 3.07-7.187 4.203-3.133 1.04-4.09 4.934-4.133 5.086-.067.316-.043.64.086.922-1.305.5-4.38 1.457-5.137-.5.73-.488 1.453-1.352 1.793-2.903.73-3.382 1.34-6 1.39-6.214m48.54-26.149c0-.027.023-.137.14-.32 1.34-2.164 3.2-2.563 3.778-2.512.125.375.207 1.32.125 2.188-.032.238-.024.5.007.773a70 70 0 0 1-.984 1.25c-2.402-.648-2.961-1.133-3.066-1.379m-1.172-3.793a.8.8 0 0 1 .394-.117 7 7 0 0 1 .04.473 3 3 0 0 1-.434-.356m19.906-8.844c-.457-.109-.727-.324-1.02-.542-.449-.348-.93-.715-2.117-.68-.562.008-.953.203-1.16.574-.355.621-.137 1.688.676 3.266.207.386.27.644.277.797-.82-.204-1.664-.422-2.433-.715-.536-.22-1-.176-1.352.117-.871.707-.934 2.781-.77 4.723-2.203.207-3.93 1.933-5.167 3.27-.032-.83-.176-1.802-.641-2.263-.328-.32-.93-.449-1.664-.359-.727.09-1.621.402-2.496 1.012-.016-.434-.063-.993-.192-1.38-.109-.327-.46-.59-.937-.687a2.47 2.47 0 0 0-2.317.746 1.23 1.23 0 0 0-.285 1.239c.23.757 1.11 1.496 1.942 1.863q-.152.211-.297.441c-.403.645-.5 1.254-.281 1.813.406 1.05 1.878 1.707 3.39 2.164-1.816 1.992-4.027 3.703-6.476 3.203-.418-.45-2.989-2.93-7.782-1.473l-.511.149c-4.746 1.437-8.496 2.562-10.125 7.484-.496 1.524-.989 2.223-1.461 2.899-1.082 1.566-1.938 2.8-2.254 11.984-.738.281-4.196 1.629-6.414 3.14-.453.255-.961.313-1.496.376-1.188.144-2.528.312-4.2 2.488-.984.824-1.558.762-2.168.672-.636-.074-1.296-.153-2.304.715-.633.39-1.332.511-1.723.547.266-.817 1.125-2.993 2.98-3.614 1.837-.605 6.301-2.308 8.067-4.898.012-.012.016-.031.023-.051.594-1.48 1.547-2.32 2.32-2.992.942-.824 1.759-1.54 1.09-2.95-.464-.995-.109-2.19.231-3.355.332-1.137.676-2.297 0-3.012.797-.296 2.48-1.007 2.95-1.93.148-.284.167-.566.081-.843-.129-.418-.02-1.156.11-1.941.191-1.243.394-2.536-.239-3.25-.277-.32-.714-.48-1.273-.477-.18-.336-.688-1.164-1.547-1.32-.672-.121-1.383.207-2.11.965-.394-.125-1.503-.407-2.202.16-.454.367-.63.992-.543 1.855l-1.364 2.5c-.554-.113-2.261-.187-5.257 2.008l-1.208.879c-2.96 2.125-5.304 3.808-5.894 7.574-.297 1.879-.55 2.902-.723 3.461a4 4 0 0 0-.687-.418c-.774-.402-1.551-.703-2.301-.996-1.414-.555-2.637-1.035-3.398-1.973-1.684-2.062-3.938-2.093-6.704-.105-3.14 2.265-5.656 2.004-9.187.754a83 83 0 0 0-2.012-.684c-3.781-1.258-8.96-2.98-10.883-5.527-.37-.488-.707-.961-1.039-1.426-1.714-2.414-3.07-4.32-6.437-4.25-.344-.133-2.508-.848-4.805 1.07a.2.2 0 0 0-.05.063s-.079.125-.212.14c-.136.024-.304-.066-.492-.234-.84-.781-1.558-.945-3.136.332-.141.113-2.754 2.379-3.606 4.535a.75.75 0 0 1-.316-.324c-1.375-2.875-2.864-4.566-4.297-4.887-1.207-.261-2.188-1.355-3.23-2.5-.626-.695-1.274-1.414-2.008-2-.618-.488-1.184-.675-1.747-.59-1.07.176-1.84 1.333-2.652 2.563l-.246.367c-.867 1.297-2.426 2.64-3.797 3.836-.562.484-1.094.938-1.543 1.367-.027.032-.066.063-.105.11-.688-.422-1.13-.86-1.293-1.29-.79-2.054-2.696-4.343-3.61-5.37.16-1.336.004-2.653-.87-3.668.988-.047 1.683-.707 2.269-2.086.265-.614.258-1.141-.004-1.551-.434-.672-1.55-.988-3.41-.965-1.496.023-2.805 1.39-3.457 2.207-.864.016-1.895.242-3.18.758.09-.695-.04-1.332-.61-1.77-2.183-1.699-5.324 1.73-6.835 3.383-1.133 1.238-1.168 2.52-1.032 3.332-.007 0-.015.008-.023.012-.11.043-.203.082-.273.098-.063 0-.278-.047-.47-.075-.452-.09-1.148-.234-1.937-.261-.379-1.332-1.316-3.727-3.136-3.575a7 7 0 0 0-.778.133c.028-.18.051-.355.04-.539a2.28 2.28 0 0 0-.731-1.57 2.18 2.18 0 0 0-1.602-.59c-1.218.066-2.156 1.129-2.093 2.39.03.606.292 1.157.734 1.567.125.125.273.223.418.309-.442.375-.781.804-.922 1.257-.152.454-.16 1.141.613 1.836a70 70 0 0 0 2.367 2q-.334.976-.44 2.23c0 .016-.009.06-.009.114-.394.191-1.156.617-1.117 1.344.031.61.637 1.14 1.098 1.465.035 1.058.133 2.242.36 3.277-.267.426-.509 1.027-.099 1.356.207.164.473.304.758.437.11.172.235.332.367.457.524.484.98.984 1.422 1.465.098.101.196.215.301.324-.117.691-.18 1.781.535 1.945.438.098 1.016.059 1.543-.035a9 9 0 0 0 1.34.86c.59.332 1.211.707 1.832 1.101-.008.68.086 1.774.809 1.602.476-.121.867-.207 1.16-.274 1.656 1.2 2.957 2.325 2.957 2.684-.5.781-2.465 3.043-3.36 3.098-.378.015-.69.207-.898.546-.394.68-.336 1.868.145 3.063-.422.418-1.66 1.73-1.125 2.695.168.309.472.606.761.887.36.355.758.754.72 1.02-.032.148-.227.308-.567.464-1.075.465-2.524 1.243-2.809 2.586-.203.965.234 2.043 1.293 3.242.031.036.07.063.102.102l-.547.75s-1.969.59-1.223 2.113c.742 1.532 3.316 1.5 2.715-.922l.543-.68c1.172.735 2.383.954 3.363.552 1.031-.422 1.617-1.458 1.672-2.844 1.129.406 5.145 1.762 8.926 1.383.457.386 1.16.82 1.836.554.55-.226.816-.672.937-1.066.864-.004 2.824-.05 4.625-.3.266.358.719.694 1.45.616.75-.097.84-.613.761-1.09.399-.128.742-.289.992-.468.688-.5 2.621-.88 5.477-1.082q.117.25.27.476c.953 1.477 1.476 1.996 1.734 2.258.168.16.168.16.11.484-.079.438-.13.93.16 1.305.257.348.753.531 1.55.602l.059.007c1.547.122 2.566.208 3.36 1.352l.097.148c.394.579.68.989 1.144 1.083.453.078.989-.168 2.02-.926 1.656-1.188 3.344-.25 3.629-.075.183.286 1.004 1.5 1.883 1.36.535-.086.93-.629 1.191-1.652.488-.301.926-.329 1.469-.364.832-.05 1.87-.129 3.566-1.16.05-.031 3.48-2.601 5.531-3.89.36.578.532 1.218.66 1.828.41 1.91-7.222 6.035-3.949 10.754.422.601.79.39.79.39s-.715-1.59.234-2.785c.797-.984 5.043.07 7.086-2.758.804 2.793 3.754 2.852 3.785 2.852a.227.227 0 0 0 .23-.207l.633-7.285c.438.917 1.016 1.566 1.734 1.917.891.43 1.727.286 2.079.18 2.386 3.488 5.214 2.399 5.605 2.223 1.328-.07 2-.344 2.102-.844.054-.21.187-.867-2.18-2.129-.254-.144-.34-.277-.324-.347.011-.102.18-.23.469-.297.882-.172 2.82.312 4.527 3.261 2.394 4.13 6.652 2.621 6.695 2.606a.23.23 0 0 0 .149-.23.23.23 0 0 0-.157-.215c-1.015-.313-1.394-1.438-1.539-2.114 2.664 1.899 5.094 2.66 7.235 2.262 2.386-.441 3.504-2.152 3.539-2.223.058-.078.05-.195 0-.273a.22.22 0 0 0-.25-.082c-2.696.887-3.946-.13-5.328-1.578 1.152-.266 3-1.29 5.203-4.637.504-.184 4.015-1.332 7.582-.371.355.094.765.207 1.226.348 4.422 1.265 13.621 3.925 19.434-1.258 3.86-3.442 4.738-5.57 4.789-6.758a2.2 2.2 0 0 0-.066-.668c.738.102 1.277.117 1.34.117a.16.16 0 0 0 .109-.031c1.324.16 3.148.445 4.715.95.312.093.68.218 1.093.358-.308.5-.906 1.665.032 2.07 1.203.52 3.941-1.413 4.023.25.09 1.661 1.45 1.34 3.734.184 0 0 1.125-.347 1.282.313.156.652.793 1.332 1.68 1.16.43-.082 1.003-.863 1.6-1.516.806-.062 1.595-.168 2.352-.367.82.57 1.524.711 2 .242.286-.28.403-.785.45-1.23 1.039-.625 1.797-1.445 2.218-2.445.606-1.438.407-2.88.188-3.735.258-.304.7-.925.805-1.808.12-1.153-1.106-.907-1.996-2.07a7.6 7.6 0 0 0-1.336-1.688c-.2-.313-.371-.742-.473-1.461-.227-1.746-2.012-2.316-2.227-.281-4.355-1.903-10.171-1.317-14.023-.153-1.102.325-2.2.727-3.27 1.118-3.359 1.207-6.52 2.359-8.14.8.125-.566.941-3.18 5.644-5.187 3.399-1.446 11.356-5.34 12.602-10.602 1.648.008 13.375-.086 16-4.367 2.336-3.797 4.375-7.14 1.726-10.203 1.086-.977 1.93-2 2.512-3.027.406-.72.496-1.32.29-1.832-.208-.508-.692-.852-1.337-1.13.168-.327.637-.796 1.856-1.12.96-.266 1.094-.805 1.09-1.098-.012-.82-1.032-1.672-1.93-1.899m-102.719 64.243a.1.1 0 0 0-.047 0 .1.1 0 0 1 .043 0Zm-63.02-51.875q.013.087.032.187a2 2 0 0 0-.281-.023c.078-.063.16-.11.25-.164m-.274 3.52c.098-.04.406-.204.246-.766l-.066-.254c-.078-.254-.16-.559-.172-.692.059 0 .16.035.383.133.719.36 1.426.367 1.797.027.144-.14.375-.468.172-1.078a4 4 0 0 0-.325-.699c-.074-.137-.172-.312-.164-.371.016-.027.133-.129.883-.234 1.754-.243 2.215-.368 2.395-1.832.082-.665.078-1.5-.371-1.676-.41-.153-.786.39-.907.574q-.018.022-.02.04c-.023.058-.57 1.327-2.519 1.362-1.293.02-2.57.723-3.18 1.746-.41.684-.464 1.426-.156 2.079.578 1.203 1.516 1.828 2.004 1.64" style="stroke:none;fill-rule:evenodd;fill:#231f20;fill-opacity:1"/></g><path d="M119.145 64.598c-31.88 0-57.727 25.843-57.727 57.726 0 31.88 25.848 57.727 57.727 57.727s57.73-25.848 57.73-57.727c0-31.883-25.852-57.726-57.73-57.726" style="stroke:none;fill-rule:nonzero;fill:#231f20;fill-opacity:1"/><path d="m85.398 160.656 3.47-7.836-7.75 3.618Zm-10.554-1.351-1.18-1.16 15.617-7.028 1.34 1.328-6.805 15.703-1.195-1.175 2.156-4.91-5.058-4.989M85.543 168.922l9.176-13.067 1.265.891-9.175 13.063ZM97.71 160.727l-1.335-.782 1.254-2.148 1.336.777Zm-8.124 10.859 6.078-10.418 1.332.781-6.074 10.418M101.031 162.406l-1.394-.664 1.066-2.246 1.395.66Zm-7.172 11.512 5.168-10.898 1.399.664-5.172 10.898M98.703 172.09l1.512.496-.016.039q-.35 1.074.031 1.984.386.899 1.293 1.2.863.28 1.614-.07.75-.357 1.023-1.18c.18-.547.172-1.04-.023-1.47-.192-.433-.633-.925-1.332-1.476-1.121-.87-1.801-1.601-2.035-2.203s-.22-1.293.039-2.086a3.2 3.2 0 0 1 1.722-1.96c.856-.415 1.742-.47 2.668-.169q1.471.481 2.059 1.602c.394.746.453 1.621.168 2.629l-1.574-.516c.14-.555.109-1.031-.102-1.433-.21-.399-.586-.688-1.117-.864q-.72-.233-1.36.09-.638.333-.875 1.047c-.109.34-.14.652-.082.926q.082.414.45.847c.218.266.57.563 1.046.895q.72.503.954.707c.617.54 1.007 1.121 1.18 1.738q.252.925-.133 2.102c-.32.988-.934 1.691-1.833 2.113q-1.352.626-2.933.11c-1.078-.356-1.824-.993-2.246-1.91q-.635-1.378-.098-3.188M112.473 163.906l1.566-.023 5.273 13.523 4.86-13.687 1.566-.028-5.75 16.059-1.238.023" /><path d="m127.66 179.14-1.93-11.906 1.524-.246 1.933 11.907Zm-.633-13.55-1.523.25-.399-2.457 1.524-.246M136.965 176.95l-1.348.421-8.117-10.094 1.559-.488 6.597 8.121.797-10.445 1.598-.504M148.629 163.648c-.934-1.007-1.906-1.605-2.926-1.796-1.016-.188-2.07.035-3.152.671q-1.513.89-2.012 2.45-.492 1.56.211 3.3Zm2.156.297-9.387 5.512c.747 1.086 1.692 1.758 2.84 2.027 1.149.262 2.27.075 3.371-.574a4.4 4.4 0 0 0 1.754-1.847c.387-.774.54-1.618.453-2.54l1.512-.89c.2 1.433.043 2.71-.46 3.836q-.759 1.688-2.466 2.691c-1.515.89-3.113 1.106-4.793.637q-2.514-.693-3.847-2.961c-.934-1.582-1.188-3.191-.77-4.828s1.422-2.922 3.02-3.856q2.343-1.379 4.77-.636 2.43.749 3.948 3.332M156.586 165.883l-1.191 1.023-7.868-9.14 1.102-.953.91 1.054q-.09-.973.18-1.699c.176-.48.492-.926.933-1.324l1.102 1.265q-1.019 1.044-1.012 2.024c.004.648.367 1.39 1.09 2.234M161.36 150.52q-1.846-.92-3.376-.649-1.529.277-2.71 1.742c-.735.907-1.075 1.91-1.016 3 .058 1.086.508 2.09 1.36 3.012Zm2.12-.48-6.84 8.472q1.62 1.12 3.372.89 1.75-.238 2.957-1.73a4.4 4.4 0 0 0 .988-2.344c.09-.86-.07-1.703-.469-2.535l1.098-1.367q1.035 1.905.922 3.75c-.074 1.23-.531 2.363-1.36 3.39-1.101 1.368-2.523 2.125-4.261 2.286-1.73.16-3.282-.309-4.649-1.415-1.425-1.152-2.234-2.566-2.418-4.246-.187-1.68.301-3.234 1.465-4.675q1.705-2.115 4.242-2.274c1.688-.105 3.313.469 4.864 1.727" /><path d="M119.145 80.434c-23.137 0-41.887 18.754-41.887 41.89 0 23.137 18.75 41.89 41.887 41.89 23.136 0 41.89-18.753 41.89-41.89 0-23.136-18.754-41.89-41.89-41.89" /><path d="m85.5 75.977 1.902-1.145 4.844 8.023q1.032 1.717 1.969 2.063c.625.23 1.36.09 2.215-.426.808-.492 1.246-1.062 1.308-1.719.063-.66-.242-1.55-.925-2.675l-4.84-8.028 1.898-1.144 4.836 8.004q.776 1.284 1.035 2.058c.18.52.254 1.012.227 1.485-.047.816-.27 1.539-.668 2.16q-.6.938-1.754 1.629-1.259.761-2.371.879c-.742.078-1.496-.051-2.27-.38a3.9 3.9 0 0 1-1.183-.823c-.356-.356-.817-1.004-1.391-1.954M106.586 81.727l-2.172.464-3.09-14.41 2.235-.48 9.699 9.328-2.445-10.883 2.14-.46 3.094 14.41-2.082.445-9.93-9.618M127.465 74.3l-1.426-5.827-2.898 5.27Zm-5.371 1.4-2.258 4.038-2.328-.3 7.82-13.852 2.14.273 4.06 15.383-2.41-.308-1.126-4.473M134.996 82.672l-1.863-1.047 7.23-12.844 2.871 1.617-1.718 12.11 9.46-7.75 2.837 1.594-7.231 12.843-1.816-1.023 6.406-11.074-10.613 8.703-1.38-.774 1.958-13.582" /><path d="M112.27 127.832h-7.399a15.23 15.23 0 0 0 6.594 11.867c1.289-2.578 4.203-4.437 7.695-4.781a7.86 7.86 0 0 1-6.89-7.086M115.117 112.742c-2.027-.875-4.515-2.129-5.902-3.515-2.594-2.594-4.176-6.91-1.153-8.926s8.782-.723 8.782-.723.574-2.59-.864-2.59c-1.44 0-4.316-.144-5.757-.144h-4.899s.578-1.438 3.602-1.438 4.176-.144 4.894-.578c.72-.43 3.313-1.008 4.317-.863 1.008.144.922-1.707.75-3.012 0 0-3.196.336-4.54-.504s-.96-.945-2.113-1.52c-1.148-.577-2.875-.148-4.89-.288-2.02-.145-4.031-.149-4.465.14-.43.29-2.012 2.305-3.887 3.602-1.87 1.297-4.46 5.18-4.605 7.195s-.575 9.649 1.293 12.668c1.66 2.68 4.457 7.149 9.968 10.145a15.2 15.2 0 0 1 9.47-9.649M137.824 96.09c-2.992-.637-8.527-.582-10.238-.555.219.61.187 2.403-.813 3.516.711.058 2.075.172 4.356.386 3.457.325 3.887 3.672 1.512 8.743-1.328 2.84-5.18 3.918-8.32 4.32-1.923.25-3.579.242-4.22.227v11.23c1.126-.2 3.938-.695 6.618-1.137a7.84 7.84 0 0 1 1.285 4.293c0 3.985-2.957 7.242-6.79 7.79-.366.05-.73.113-1.109.113h-.003v7.379h.003c1.72 0 3.348-.348 4.891-.875 1.442-.489 2.79-1.157 4-2.028 3.852-2.773 6.383-7.273 6.383-12.379 0-1.992-.41-3.879-1.102-5.62 7.645-2.118 10.68-8.071 11.211-14.716.649-8.097-4.101-9.933-7.664-10.687" style="stroke:none;fill-rule:nonzero;fill:#231f20;fill-opacity:1"/><path d="M119.668 146.676c-2.43-.25-4.316-1.926-4.316-3.992 0-.16.054-.305.082-.457h-4.637c-.012.156-.055.3-.055.457 0 2.972 2.035 5.527 4.996 6.855.657-1.535 2.145-2.644 3.93-2.863" style="stroke:none;fill-rule:evenodd;fill:#231f20;fill-opacity:1"/><path d="M129.836 142.684c0-1.141-.309-2.215-.84-3.192-1.21.871-2.559 1.54-4 2.028.137.37.23.753.23 1.164 0 2.046-1.847 3.722-4.242 4-.23.027-.457.058-.695.058-.066 0-.125-.015-.187-.015v3.793c.062.003.12.02.187.02.793 0 1.55-.102 2.29-.255.151.313.253.649.253 1.02 0 1.336-1.137 2.425-2.543 2.425-.066 0-.121-.03-.187-.039-1.313-.093-2.356-1.117-2.356-2.386 0-.16.078-.297.113-.446h-2.441c-.016.149-.047.293-.047.446 0 2.527 2.106 4.57 4.73 4.668.063 0 .126.015.188.015 2.715 0 4.914-2.097 4.914-4.683 0-.621-.133-1.215-.363-1.758 2.965-1.336 4.996-3.89 4.996-6.863" style="stroke:none;fill-rule:nonzero;fill:#231f20;fill-opacity:1"/><path d="M127.586 95.54c-.035-.106-.078-.185-.125-.204-1.406-.648-10.043-.324-10.043-.324s5.723 3.129 8.96 4.426c.153-.114.274-.25.395-.387 1-1.114 1.032-2.906.813-3.512" /><path d="M1275.86 1322.01c-.352 1.054-.782 1.835-1.25 2.03-14.063 6.485-100.43 3.243-100.43 3.243s57.226-31.29 89.61-44.258c1.523 1.133 2.733 2.5 3.944 3.867 10 11.133 10.313 29.063 8.125 35.117Zm0 0" style="fill:none;stroke-width:7.5;stroke-linecap:butt;stroke-linejoin:miter;stroke:#231f20;stroke-opacity:1;stroke-miterlimit:4" transform="matrix(.1 0 0 -.1 0 227.74)"/><path d="M108.148 89.703c-1.203 0-2.183.98-2.183 2.188 0 1.203.98 2.183 2.183 2.183 1.207 0 2.188-.98 2.188-2.183 0-1.207-.98-2.188-2.188-2.188" style="stroke:none;fill-rule:evenodd;fill:#fff;fill-opacity:1"/><path d="M108.148 90.785c-.367 0-.664.492-.664 1.106 0 .609.297 1.101.664 1.101.372 0 .668-.492.668-1.101 0-.614-.296-1.106-.668-1.106" style="stroke:none;fill-rule:evenodd;fill:#231f20;fill-opacity:1"/><path d="M1081.484 1369.548c-3.671 0-6.64-4.921-6.64-11.054 0-6.094 2.968-11.016 6.64-11.016 3.711 0 6.68 4.922 6.68 11.016 0 6.133-2.969 11.054-6.68 11.054Zm0 0" style="fill:none;stroke-width:3.45;stroke-linecap:butt;stroke-linejoin:miter;stroke:#231f20;stroke-opacity:1;stroke-miterlimit:4" transform="matrix(.1 0 0 -.1 0 227.74)"/><path d="M116.121 94.309s.649 5.129-.484 7.394c1.566-1.672 2.754-5.183 2.265-7.883-.808.164-1.78.489-1.78.489" style="stroke:none;fill-rule:evenodd;fill:#fff;fill-opacity:1"/><path d="M1161.21 1334.314s6.485-51.289-4.843-73.945c15.664 16.719 27.54 51.836 22.656 78.828-8.085-1.64-17.812-4.883-17.812-4.883Zm0 0" style="fill:none;stroke-width:7.5;stroke-linecap:butt;stroke-linejoin:miter;stroke:#231f20;stroke-opacity:1;stroke-miterlimit:4" transform="matrix(.1 0 0 -.1 0 227.74)"/><path d="M114.45 94.688s.648 5.124-.485 7.394c1.562-1.676 2.754-5.184 2.265-7.883-.808.164-1.78.489-1.78.489" style="stroke:none;fill-rule:evenodd;fill:#fff;fill-opacity:1"/><path d="M1144.492 1330.525s6.485-51.25-4.844-73.945c15.625 16.758 27.54 51.836 22.657 78.828-8.086-1.64-17.813-4.883-17.813-4.883Zm0 0" style="fill:none;stroke-width:7.5;stroke-linecap:butt;stroke-linejoin:miter;stroke:#231f20;stroke-opacity:1;stroke-miterlimit:4" transform="matrix(.1 0 0 -.1 0 227.74)"/><path d="M68.332 160.184c.973-3.086.719-7.196-1.586-10.075 2.594-5.328 9.645-18.859 9.645-18.859l-8.493 1.586-3.742 15.402s-5.324-2.734-10.363-2.449c-.961.055-1.824.32-2.629.668.719.93 1.457 1.848 2.215 2.746.617-.176 1.234-.277 1.851-.25 3.024.149 5.758 2.02 5.758 2.02s-3.097-.567-5.707.425a91 91 0 0 0 2.934 3.094c.066-.015.12-.05.183-.066 3.887-.719 6.192-.719 6.047 1.008-.054.675.082 2.296-.53 4.265a97 97 0 0 0 3.132 2.5c.61-.633 1.062-1.312 1.285-2.015M59.547 165.512c1.984-.082 4.18-.864 5.902-2.004-.804-.621-1.61-1.238-2.394-1.887-.715 1.281-1.782 2.617-3.508 3.89M47.023 154.86c1.176-2.094 2.739-3.77 4.438-4.79a98 98 0 0 1-2.023-2.539c-2.27 1.82-3.36 4.766-2.415 7.328M52.64 153.418c-2.152 3.363-.144 7.055-.144 7.055s1.375-3.325 3.816-5.055a90 90 0 0 1-2.773-2.95c-.324.278-.648.563-.898.95M185.031 145.79c-5.039-.286-10.363 2.448-10.363 2.448l-3.746-15.402-8.492-1.586s7.054 13.531 9.648 18.86c-2.305 2.878-2.558 6.988-1.586 10.074.192.609.578 1.199 1.067 1.761a84 84 0 0 0 3.234-2.61c-.488-1.8-.36-3.269-.414-3.901-.14-1.688 2.066-1.723 5.797-1.051a89 89 0 0 0 2.953-3.125c-2.512-.785-5.297-.285-5.297-.285s2.738-1.871 5.762-2.02c.469-.023.937.04 1.414.137a87 87 0 0 0 2.254-2.805c-.7-.254-1.43-.45-2.23-.496M179.273 165.512c-1.867-1.38-2.972-2.828-3.68-4.203a89 89 0 0 1-2.5 2c1.755 1.25 4.083 2.117 6.18 2.203M189.055 147.27c-.672.87-1.344 1.742-2.047 2.585 1.832.997 3.539 2.766 4.789 5.004.996-2.683-.242-5.8-2.742-7.59M186.328 160.473s2.008-3.692-.144-7.055c-.329-.512-.754-.887-1.207-1.215a95 95 0 0 1-2.778 2.977c2.64 1.66 4.13 5.293 4.13 5.293" /><path d="M186.176 158.32c-.606-1.011-1.5-2.261-2.692-3.25q.799-.836 1.578-1.691c.153.152.29.312.403.496.648 1.016.86 2.055.863 3.012 0 .511-.062 1-.152 1.433m-.7-6.804a.844.844 0 0 0-1.132.12 94 94 0 0 1-2.754 2.95.85.85 0 0 0-.235.695c.028.254.172.48.391.617 1.149.715 2.125 1.946 2.785 3 .668 1.059 1.004 1.899 1.008 1.895a.85.85 0 0 0 .742.527c.016 0 .028.004.043.004a.86.86 0 0 0 .75-.445c.031-.07.946-1.734.953-3.992a7.2 7.2 0 0 0-1.129-3.926c-.406-.64-.93-1.086-1.421-1.445m2.804-1.88c.309-.382.614-.773.914-1.16 1.211 1.106 1.961 2.587 2.078 4.04-.886-1.157-1.902-2.133-2.992-2.88m1.266-3.058a.85.85 0 0 0-1.168.172c-.672.871-1.332 1.734-2.024 2.563a.83.83 0 0 0-.18.703c.048.25.204.464.43.586 1.653.898 3.266 2.554 4.45 4.671.148.27.437.434.742.434h.066a.85.85 0 0 0 .73-.555c.27-.73.395-1.484.395-2.234-.004-2.45-1.328-4.824-3.441-6.34m-14.984 16.656q.398-.31.792-.632c.31.492.676.992 1.11 1.488-.66-.23-1.305-.52-1.903-.856m1.79-2.316a.844.844 0 0 0-1.3-.262 97 97 0 0 1-2.482 1.98.851.851 0 0 0 .027 1.363c1.895 1.345 4.337 2.263 6.641 2.36h.04a.85.85 0 0 0 .796-.57.85.85 0 0 0-.297-.965c-1.765-1.304-2.773-2.637-3.425-3.906m3.527-7.45c-1.25-.218-2.332-.347-3.25-.347-.797.004-1.48.086-2.082.41-.617.305-1.059 1.035-1.027 1.754q0 .122.011.227c.043.425-.062 1.82.309 3.511q-1.05.885-2.13 1.727a3.4 3.4 0 0 1-.41-.824 11 11 0 0 1-.495-3.309c-.004-2.125.593-4.308 1.933-5.98a.86.86 0 0 0 .102-.903c-2.063-4.242-6.926-13.625-8.852-17.332l6.239 1.164 3.613 14.871a.853.853 0 0 0 1.215.555c.004 0 1.14-.586 2.89-1.187 1.746-.598 4.07-1.188 6.328-1.188q.353.001.711.02l.047-.848-.047.848q.429.024.832.11-.562.714-1.148 1.417a6 6 0 0 0-1.129-.059c-3.328.176-6.125 2.133-6.187 2.165a.85.85 0 0 0-.305 1.023.85.85 0 0 0 .937.516c0-.004.79-.145 1.926-.145.488 0 1.04.027 1.594.106a74 74 0 0 1-1.625 1.699m4.066-2.434a.83.83 0 0 0-.566-.586 10 10 0 0 0-1.55-.351 8.7 8.7 0 0 1 1.804-.297c.066 0 .117-.004.164-.004q.48.001 1.031.125a.86.86 0 0 0 .824-.285c.786-.93 1.54-1.875 2.282-2.832a.855.855 0 0 0-.383-1.317c-.742-.277-1.563-.496-2.473-.547a14 14 0 0 0-.805-.023c-3.738.008-7.351 1.379-9.027 2.113l-3.5-14.398a.84.84 0 0 0-.668-.633l-8.492-1.586a.85.85 0 0 0-.84.328.86.86 0 0 0-.07.899c.012.02 6.668 12.789 9.41 18.37-1.399 1.973-1.98 4.344-1.98 6.606 0 1.336.203 2.637.574 3.82.246.774.703 1.45 1.238 2.067a.85.85 0 0 0 1.156.113 82 82 0 0 0 3.266-2.633.84.84 0 0 0 .27-.87c-.45-1.677-.329-2.966-.383-3.755q-.007-.057-.008-.074c.031-.222-.004-.148.144-.265.164-.098.614-.204 1.266-.2.844 0 2 .145 3.39.399.278.05.56-.04.758-.239a87 87 0 0 0 2.98-3.152.84.84 0 0 0 .188-.793m-131.297 7.297a7.2 7.2 0 0 1-.156-1.445c0-.957.211-1.992.863-3.012.043-.062.09-.129.141-.191a79 79 0 0 0 1.555 1.656c-1.047.945-1.848 2.066-2.403 2.992m1.524-6.434a.85.85 0 0 0-1.188-.078c-.324.285-.726.625-1.058 1.137l.715.461-.72-.461c-.85 1.328-1.128 2.723-1.128 3.93.008 2.258.922 3.922.957 3.992a.85.85 0 0 0 .742.445c.016 0 .035-.004.051-.004a.84.84 0 0 0 .738-.523s.313-.766.93-1.758c.61-.988 1.516-2.172 2.59-2.93a.86.86 0 0 0 .36-.62.85.85 0 0 0-.243-.669 84 84 0 0 1-2.746-2.922m-6.625.622c.105-1.333.746-2.68 1.781-3.747q.434.559.879 1.11a13.3 13.3 0 0 0-2.66 2.637m4.75-2.313a.84.84 0 0 0-.188-.684 99 99 0 0 1-2-2.511.86.86 0 0 0-.57-.328.86.86 0 0 0-.633.183c-1.898 1.52-3.07 3.754-3.074 6.059 0 .746.125 1.5.395 2.226a.85.85 0 0 0 .73.555h.07c.305 0 .59-.164.739-.434 1.109-1.984 2.586-3.55 4.132-4.476a.85.85 0 0 0 .399-.59m10.058 13.879c.348-.399.649-.797.918-1.195q.331.262.66.52c-.503.26-1.035.487-1.578.675m1.239-3.121a.84.84 0 0 0-.696-.18.86.86 0 0 0-.59.422c-.66 1.188-1.632 2.414-3.265 3.617a.85.85 0 0 0-.297.965c.121.344.441.57.8.57h.036c2.18-.093 4.484-.925 6.336-2.144a.84.84 0 0 0 .379-.68.83.83 0 0 0-.332-.703c-.805-.621-1.606-1.234-2.371-1.867m2.386-11.23a.86.86 0 0 0 .102.902c1.34 1.672 1.938 3.855 1.934 5.98 0 1.16-.18 2.301-.493 3.309h-.003c-.11.351-.313.73-.594 1.105a83 83 0 0 1-2.043-1.633c.476-1.867.36-3.418.41-3.894.004-.082.008-.145.008-.223.031-.715-.41-1.449-1.028-1.754-.605-.324-1.289-.402-2.082-.406-1.027 0-2.265.164-3.714.426a85 85 0 0 1-1.637-1.707c.71-.133 1.426-.184 2.05-.18a12 12 0 0 1 1.395.074c.348.036.547.075.55.075a.855.855 0 0 0 .942-.512.86.86 0 0 0-.308-1.027c-.063-.032-2.86-1.985-6.2-2.165-.09-.007-.183-.007-.253-.007-.457 0-.899.058-1.325.152q-.573-.69-1.136-1.395c.414-.113.84-.19 1.285-.214q.345-.024.707-.024c2.254 0 4.582.59 6.332 1.188 1.746.597 2.883 1.191 2.887 1.187a.853.853 0 0 0 1.214-.554l3.614-14.872 6.238-1.164c-1.926 3.707-6.785 13.09-8.852 17.332m10.254-19.324-8.492 1.586a.85.85 0 0 0-.668.637l-3.5 14.398c-1.676-.73-5.289-2.101-9.027-2.113-.262 0-.535.004-.813.023-1.078.059-2.047.36-2.91.739a.85.85 0 0 0-.488.566.86.86 0 0 0 .156.734c.727.934 1.473 1.86 2.238 2.77a.85.85 0 0 0 .88.27c.492-.137.964-.223 1.406-.223q.103-.001.148.004c.617.027 1.23.14 1.809.293a9.6 9.6 0 0 0-1.996.508.86.86 0 0 0-.524.597.86.86 0 0 0 .195.77 86 86 0 0 0 2.97 3.12.85.85 0 0 0 .816.224c.082-.024.14-.047.171-.06 1.465-.273 2.704-.437 3.586-.433.653-.007 1.102.098 1.266.2.148.113.113.035.14.261q0 .03-.003.102c-.055.804.07 2.234-.492 4.062a.84.84 0 0 0 .27.903 86 86 0 0 0 3.16 2.527.859.859 0 0 0 1.129-.09c.667-.695 1.202-1.476 1.48-2.344l-.809-.257.813.254c.37-1.18.57-2.485.57-3.82 0-2.266-.582-4.638-1.977-6.606 2.742-5.586 9.399-18.352 9.407-18.371a.84.84 0 0 0-.07-.899.86.86 0 0 0-.84-.332" style="stroke:none;fill-rule:nonzero;fill:#231f20;fill-opacity:1"/><path d="M70.633 118.727c.578 3.168-.29 4.753-2.59 5.039-2.305.285-6.621.863-6.188 5.183.43 4.317 5.754 5.176 9.786 4.172 3.675-.918 4.605-7.34 3.312-12.523-1.297-5.184-4.32-12.668-7.344-17.996a25 25 0 0 1-1.472-3.118c-.57 1.317-1.051 2.668-1.52 4.032.137.324.25.617.403.96 3.168 7.196 5.195 11.942 5.613 14.25M163.871 120.598c-1.297 5.183-.363 11.605 3.313 12.523 3.23.805 7.25.379 8.957-2.035.218-1.43.398-2.871.511-4.336-.984-2.312-4.047-2.758-5.87-2.984-2.305-.286-3.169-1.871-2.59-5.04.417-2.308 2.445-7.054 5.613-14.25.043-.105.078-.187.12-.285-.456-1.386-.94-2.761-1.5-4.097-.39.914-.792 1.773-1.21 2.508-3.024 5.328-6.047 12.812-7.344 17.996" /><path d="M175.426 130.79c-1.004 1.296-3.028 1.956-5.215 1.952-.965 0-1.941-.125-2.852-.347-2.03-.422-3.312-3.54-3.293-7.274 0-1.445.18-2.945.536-4.344 1.265-5.086 4.277-12.558 7.261-17.804q.257-.457.508-.961.393 1.062.75 2.148l-.008.02c-3.168 7.21-5.199 11.91-5.66 14.41a10 10 0 0 0-.187 1.847c-.09 2.262 1.293 3.891 3.422 4.075 1.78.187 4.41.699 5.203 2.363a59 59 0 0 1-.465 3.914m1.914-4.332c-1.278-2.832-4.653-3.184-6.469-3.437-1.555-.282-2.016-.77-2.105-2.582 0-.454.05-.981.16-1.579.37-2.113 2.398-6.906 5.562-14.082.051-.117.086-.195.121-.293l.118-.261-.09-.27c-.461-1.394-.95-2.785-1.524-4.148l-.687-1.64-.696 1.636a23 23 0 0 1-1.167 2.43c-3.067 5.402-6.098 12.906-7.418 18.183a19.7 19.7 0 0 0-.579 4.707c.02 3.942 1.18 7.828 4.43 8.727 1.031.254 2.125.394 3.215.394 2.531-.008 5.105-.734 6.539-2.722l.105-.145.024-.176c.223-1.441.406-2.902.52-4.39l.015-.184Zm-105.88 5.938c-.925.222-1.929.355-2.91.355-1.527 0-3-.312-4.062-.95-1.062-.644-1.738-1.53-1.886-2.929a4 4 0 0 1-.032-.508c.028-1.605.754-2.351 1.875-2.949 1.121-.566 2.602-.773 3.688-.906 2.133-.184 3.512-1.813 3.422-4.074q-.001-.843-.184-1.844c-.465-2.5-2.496-7.2-5.668-14.414-.101-.242-.187-.457-.285-.688.242-.691.484-1.379.742-2.058.258.55.528 1.066.797 1.543 2.984 5.25 6 12.718 7.266 17.804.351 1.395.53 2.899.53 4.34.024 3.735-1.269 6.856-3.292 7.278m-3.2-30.165a24 24 0 0 1-1.429-3.02l-.664-1.69-.723 1.668c-.578 1.343-1.066 2.714-1.539 4.082l-.093.27.113.265c.133.316.246.61.406.972 3.164 7.176 5.191 11.97 5.563 14.082q.162.895.16 1.575c-.09 1.812-.551 2.304-2.106 2.586-1.105.14-2.734.34-4.176 1.054-1.441.688-2.726 2.102-2.703 4.29q-.001.314.04.663c.171 1.864 1.222 3.25 2.613 4.063 1.39.824 3.105 1.156 4.828 1.16a14 14 0 0 0 3.27-.402c3.25-.899 4.413-4.786 4.433-8.73 0-1.571-.195-3.184-.574-4.704-1.325-5.277-4.356-12.777-7.418-18.184M.148 16.77V-.004H8.41V2.23H2.555v5.012H8.41v2.192H2.555v7.336M13.05 10.355q.002 1.923 1.274 3.223c.848.867 1.887 1.305 3.117 1.305q1.683-.001 2.965-1.309 1.285-1.306 1.285-3.058c0-1.246-.425-2.309-1.273-3.2q-1.271-1.328-3.023-1.328-1.8 0-3.07 1.266-1.273 1.267-1.274 3.101m8.527 6.415v-1.555a6.1 6.1 0 0 1-1.957 1.379 5.7 5.7 0 0 1-2.297.465c-1.906 0-3.484-.637-4.746-1.907q-1.889-1.907-1.89-4.773c0-.895.16-1.738.472-2.535a6.4 6.4 0 0 1 1.348-2.11q.959-1.004 2.094-1.48 1.131-.476 2.585-.477 1.301 0 2.395.457 1.095.462 1.996 1.399V4.098h2.3V16.77M38.555 12.45c-.528 1.527-1.317 2.687-2.36 3.472q-1.566 1.183-3.812 1.183-1.418 0-2.57-.492-1.155-.488-2.086-1.468a6.8 6.8 0 0 1-1.387-2.172 6.6 6.6 0 0 1-.5-2.528c0-.883.148-1.71.453-2.48a6.7 6.7 0 0 1 1.344-2.117 6.8 6.8 0 0 1 2.199-1.59 6.4 6.4 0 0 1 2.613-.54q2.178-.001 3.781 1.204 1.602 1.202 2.325 3.383h-2.5c-.399-.778-.91-1.36-1.543-1.742q-.945-.575-2.258-.575-1.692 0-2.875 1.278c-.785.851-1.18 1.906-1.18 3.156 0 1.265.399 2.324 1.2 3.168.796.844 1.792 1.27 2.984 1.27q1.197-.001 2.164-.63.967-.627 1.508-1.78M51.39 16.77h-2.187v-1.418c-.457.578-.965 1.003-1.527 1.285q-.851.422-1.895.422-2.4 0-3.71-1.489-1.313-1.483-1.313-4.18V4.099h2.281v6.636q0 2.05.723 3.075.725 1.026 2.18 1.027.896 0 1.601-.422.703-.42 1.117-1.203a3.9 3.9 0 0 0 .363-1.152c.07-.446.11-1.164.11-2.157V4.098h2.258M54.152 16.77h2.258V-.004h-2.258ZM59.902 16.77V6.172h-1.797V4.098h1.797V-.004h2.27v4.102h1.797v2.074h-1.797V16.77M67.332 10.355q.001 1.923 1.273 3.223c.852.867 1.887 1.305 3.118 1.305q1.68-.001 2.965-1.309 1.287-1.306 1.285-3.058c0-1.246-.426-2.309-1.274-3.2q-1.27-1.328-3.023-1.328c-1.2 0-2.219.422-3.07 1.266q-1.273 1.267-1.274 3.101m8.527 6.415v-1.555a6.1 6.1 0 0 1-1.953 1.379 5.8 5.8 0 0 1-2.3.465q-2.854-.001-4.747-1.907-1.886-1.907-1.886-4.773a6.8 6.8 0 0 1 .472-2.535q.47-1.201 1.348-2.11.954-1.004 2.09-1.48c.758-.316 1.617-.477 2.586-.477.867 0 1.668.153 2.394.457q1.095.462 1.996 1.399V4.098h2.301V16.77M82.527 10.355q.001 1.923 1.274 3.223c.847.867 1.886 1.305 3.117 1.305q1.682-.001 2.965-1.309 1.284-1.306 1.285-3.058c0-1.246-.426-2.309-1.273-3.2q-1.272-1.328-3.024-1.328-1.8 0-3.07 1.266-1.273 1.267-1.274 3.101m8.528 6.415v-1.555a6.1 6.1 0 0 1-1.953 1.379 5.8 5.8 0 0 1-2.301.465q-2.855-.001-4.746-1.907-1.889-1.907-1.89-4.773.002-1.341.472-2.535a6.4 6.4 0 0 1 1.347-2.11c.641-.668 1.336-1.164 2.094-1.48s1.617-.477 2.586-.477q1.29 0 2.39.457 1.097.462 2.024 1.399V-.004h2.277V16.77M104.473 10.355q0 1.923 1.273 3.223c.848.867 1.887 1.305 3.117 1.305q1.682-.001 2.965-1.309c.86-.87 1.285-1.89 1.285-3.058 0-1.246-.425-2.309-1.273-3.2q-1.272-1.328-3.024-1.328-1.798 0-3.07 1.266-1.273 1.267-1.273 3.101m8.523 6.415v-1.555a6.1 6.1 0 0 1-1.95 1.379 5.8 5.8 0 0 1-2.3.465q-2.853-.001-4.746-1.907-1.889-1.907-1.89-4.773.001-1.341.476-2.535.47-1.201 1.344-2.11.959-1.004 2.093-1.48 1.132-.476 2.586-.477 1.29 0 2.391.457c.73.309 1.406.774 2.02 1.399V-.004h2.28V16.77M127.813 9.227q-.43-1.57-1.473-2.426c-.7-.574-1.54-.86-2.512-.86q-1.5-.001-2.598.883-1.1.879-1.515 2.403Zm-8.168 2.046c.19 1.063.671 1.918 1.433 2.579q1.15.984 2.727.984c.754 0 1.437-.184 2.054-.543a3.93 3.93 0 0 0 1.48-1.531h2.571c-.586 1.406-1.398 2.48-2.45 3.222q-1.57 1.12-3.655 1.121-1.406-.002-2.57-.496a6.3 6.3 0 0 1-2.106-1.488 6.8 6.8 0 0 1-1.39-2.168 6.8 6.8 0 0 1-.5-2.531q.001-1.335.452-2.5c.305-.774.75-1.48 1.344-2.121a6.4 6.4 0 0 1 2.13-1.559 6.4 6.4 0 0 1 2.593-.523q1.67 0 3.105.777a6.56 6.56 0 0 1 2.367 2.172q.552.862.817 1.894.268 1.032.266 2.356v.355M141.5 16.77h-2.34V-.004h3.606l4.863 12.973 4.86-12.973h3.562V16.77h-2.281l.16-14.563-5.45 14.563h-1.726l-5.43-14.563M168.766 9.227c-.286-1.047-.774-1.856-1.477-2.426-.695-.574-1.535-.86-2.508-.86q-1.501-.001-2.597.883-1.102.879-1.516 2.403Zm-8.168 2.046c.191 1.063.672 1.918 1.433 2.579.766.656 1.672.984 2.727.984.75 0 1.437-.184 2.054-.543a3.96 3.96 0 0 0 1.481-1.531h2.57c-.586 1.406-1.398 2.48-2.449 3.222q-1.57 1.12-3.656 1.121-1.406-.002-2.57-.496a6.4 6.4 0 0 1-2.11-1.488 6.9 6.9 0 0 1-1.387-2.168 6.8 6.8 0 0 1-.5-2.531q.001-1.335.454-2.5.455-1.16 1.343-2.121a6.4 6.4 0 0 1 2.13-1.559 6.4 6.4 0 0 1 2.593-.523q1.67 0 3.105.777a6.56 6.56 0 0 1 2.368 2.172q.551.862.816 1.894t.266 2.356v.355M174.965 10.355q.001 1.923 1.273 3.223c.848.867 1.887 1.305 3.117 1.305q1.683-.001 2.965-1.309 1.284-1.306 1.285-3.058c0-1.246-.425-2.309-1.273-3.2q-1.272-1.328-3.023-1.328-1.8 0-3.07 1.266-1.273 1.267-1.274 3.101m8.523 6.415v-1.555a6.05 6.05 0 0 1-1.953 1.379 5.7 5.7 0 0 1-2.297.465q-2.853-.001-4.746-1.907c-1.262-1.27-1.887-2.863-1.887-4.773q0-1.341.47-2.535a6.4 6.4 0 0 1 1.347-2.11q.959-1.004 2.094-1.48 1.132-.476 2.586-.477 1.289 0 2.39.457a6.2 6.2 0 0 1 2.02 1.399V-.004h2.281V16.77M188.441 4.098h2.262V16.77h-2.262Zm2.258-1.485h-2.258V-.004h2.258ZM205.445 12.45c-.527 1.527-1.316 2.687-2.36 3.472q-1.568 1.183-3.812 1.183-1.416 0-2.57-.492-1.155-.488-2.086-1.468a6.8 6.8 0 0 1-1.387-2.172 6.65 6.65 0 0 1-.503-2.528c0-.883.156-1.71.457-2.48a6.7 6.7 0 0 1 1.343-2.117 6.7 6.7 0 0 1 2.2-1.59 6.4 6.4 0 0 1 2.617-.54q2.173-.001 3.777 1.204c1.066.8 1.844 1.93 2.324 3.383h-2.5q-.598-1.168-1.543-1.742-.944-.575-2.257-.575-1.693 0-2.875 1.278c-.786.851-1.18 1.906-1.18 3.156 0 1.265.398 2.324 1.2 3.168.796.844 1.792 1.27 2.983 1.27q1.197-.001 2.165-.63.967-.627 1.507-1.78M207.715 4.098h2.258V16.77h-2.258Zm2.258-1.485h-2.258V-.004h2.258ZM214.973 16.77h-2.282V4.098h2.192v1.441c.472-.57 1-.984 1.57-1.25q.86-.399 1.965-.398 2.49.001 3.82 1.46 1.326 1.466 1.328 4.196v7.223h-2.293v-6.727q-.001-2.016-.746-2.988-.75-.978-2.316-.977-1.705 0-2.473 1.149-.764 1.142-.765 3.785" style="stroke:none;fill-rule:nonzero;fill:#231f20;fill-opacity:1"/><g clip-path="url(#b)"><path d="M227.957 10.355q.001 1.923 1.273 3.223c.848.867 1.887 1.305 3.118 1.305q1.68-.001 2.964-1.309 1.285-1.306 1.286-3.058c0-1.246-.426-2.309-1.274-3.2q-1.27-1.328-3.023-1.328-1.8 0-3.07 1.266-1.273 1.267-1.274 3.101m8.523 6.415v-1.555a6.05 6.05 0 0 1-1.953 1.379 5.7 5.7 0 0 1-2.297.465q-2.859-.001-4.746-1.907-1.886-1.907-1.886-4.773 0-1.341.468-2.535a6.4 6.4 0 0 1 1.348-2.11q.959-1.004 2.094-1.48 1.132-.476 2.586-.477 1.3 0 2.394.457a5.95 5.95 0 0 1 1.992 1.399V4.098h2.305V16.77" style="stroke:none;fill-rule:nonzero;fill:#231f20;fill-opacity:1"/></g><g clip-path="url(#c)"><path d="M0 26.11h238.816v-5.18H0Zm0 0" style="stroke:none;fill-rule:nonzero;fill:#231f20;fill-opacity:1"/></g></svg>
